<svg width="36" height="25" viewBox="0 0 36 25" fill="none" xmlns="http://www.w3.org/2000/svg">
<path d="M35.1586 13.1273C34.9123 12.626 29.6427 3.90137 29.5092 3.6835C28.5255 2.08007 26.8204 1.12284 24.9481 1.12284C24.681 1.12284 24.4186 1.14318 24.1618 1.18132C24.1616 1.18082 24.1609 1.17976 24.1607 1.17948C23.707 0.440972 22.9217 0 22.0601 0C20.6996 0 19.5928 1.11168 19.5928 2.47817V6.80822H16.4072V2.47817C16.4072 1.11175 15.3004 0 13.9399 0C13.0799 0 12.296 0.439348 11.8383 1.18132C11.5816 1.14318 11.3191 1.12284 11.0519 1.12284C9.17958 1.12284 7.4745 2.08014 6.49076 3.68364C6.47719 3.70574 6.43591 3.77312 5.44437 5.44272C5.27393 5.72974 5.36745 6.10122 5.65312 6.27241C5.93888 6.44353 6.30872 6.34981 6.47916 6.06273C7.29506 4.68896 7.49377 4.3559 7.51676 4.3184C8.27937 3.07529 9.60096 2.33311 11.052 2.33311C13.3405 2.33311 15.2023 4.20314 15.2023 6.50172V12.4654C13.7587 10.1009 11.1616 8.52013 8.20364 8.52013C6.86777 8.52013 5.60559 8.84274 4.48995 9.41401C4.77647 8.93116 5.07916 8.42105 5.38291 7.90945C5.55328 7.62237 5.45977 7.25089 5.17395 7.07977C4.88812 6.90865 4.51835 7.00258 4.34791 7.28966C3.06781 9.44607 1.053 12.6817 0.798469 13.2159C0.286875 14.2899 0 15.4919 0 16.7601C0 21.3036 3.68016 25 8.20364 25C12.7271 25 16.4072 21.3036 16.4072 16.7601V15.1522H19.5928V16.7601C19.5928 21.3036 23.2729 25 27.7964 25C32.3198 25 36 21.3036 36 16.7601C36.0001 15.457 35.6972 14.2237 35.1586 13.1273ZM15.2023 3.10707C14.6457 2.42181 13.9247 1.87674 13.1001 1.5326C13.3282 1.32708 13.624 1.21027 13.94 1.21027C14.636 1.21027 15.2023 1.779 15.2023 2.4781V3.10707ZM8.20364 23.7896C4.34454 23.7896 1.20495 20.6362 1.20495 16.76C1.20495 12.8839 4.34454 9.7304 8.20364 9.7304C12.0627 9.7304 15.2023 12.8839 15.2023 16.76C15.2023 20.6362 12.0627 23.7896 8.20364 23.7896ZM16.4071 11.6183V8.01842H19.5927V11.6183H16.4071ZM19.5928 13.942H16.4072V12.8286H19.5928V13.942ZM20.7977 2.47817C20.7977 1.77907 21.364 1.21034 22.06 1.21034C22.377 1.21034 22.6737 1.32793 22.9006 1.53238C22.0758 1.87653 21.3545 2.42174 20.7977 3.10714V2.47817ZM20.7977 6.50172C20.7977 4.20307 22.6595 2.33311 24.948 2.33311C26.3991 2.33311 27.7206 3.07536 28.4832 4.3184C28.5555 4.43627 30.0613 6.97271 31.5101 9.41401C30.3943 8.84267 29.1322 8.52006 27.7963 8.52006C24.8383 8.52006 22.2412 10.1009 20.7977 12.4654L20.7977 6.50172ZM27.7964 23.7896C23.9373 23.7896 20.7978 20.6361 20.7978 16.76C20.7978 12.8838 23.9374 9.73033 27.7964 9.73033C31.6555 9.73033 34.7951 12.8838 34.7951 16.76C34.7951 20.6361 31.6555 23.7896 27.7964 23.7896Z" fill="#17A085"/>
<path d="M33.0784 14.8531C32.9657 14.5387 32.6208 14.3753 32.3076 14.4884C31.9946 14.6015 31.8319 14.9481 31.9445 15.2626C32.1159 15.7416 32.2029 16.2454 32.2029 16.76C32.2029 19.2005 30.2262 21.186 27.7963 21.186C25.3666 21.186 23.3898 19.2005 23.3898 16.76C23.3898 14.3195 25.3666 12.334 27.7963 12.334C29.0158 12.334 30.1918 12.8485 31.0231 13.7457C31.2497 13.9903 31.6309 14.0041 31.8746 13.7764C32.1182 13.5487 32.1319 13.1658 31.9052 12.9211C30.8469 11.7788 29.3493 11.1236 27.7963 11.1236C24.7021 11.1236 22.1848 13.652 22.1848 16.7599C22.1848 19.8679 24.7021 22.3962 27.7963 22.3962C30.8906 22.3962 33.4078 19.8679 33.4078 16.7599C33.4079 16.1055 33.297 15.4639 33.0784 14.8531Z" fill="#17A085"/>
<path d="M8.20358 11.1238C5.10934 11.1238 2.59208 13.6522 2.59208 16.7601C2.59208 19.868 5.10934 22.3964 8.20358 22.3964C11.2978 22.3964 13.8151 19.868 13.8151 16.7601C13.8151 13.6522 11.2978 11.1238 8.20358 11.1238ZM8.20358 21.1861C5.77379 21.1861 3.79703 19.2006 3.79703 16.76C3.79703 14.3195 5.77372 12.334 8.20358 12.334C10.6334 12.334 12.6101 14.3194 12.6101 16.76C12.6101 19.2006 10.6333 21.1861 8.20358 21.1861Z" fill="#17A085"/>
</svg>
