<svg width="34" height="24" viewBox="0 0 34 24" fill="none" xmlns="http://www.w3.org/2000/svg">
<path d="M32.8027 1.99713C32.8005 1.99713 32.7983 1.99713 32.7962 1.99713H30.5981V1.24499C30.6099 0.94729 30.4174 0.679743 30.1313 0.596586C28.6052 0.196684 27.0338 -0.00383488 25.4563 5.55376e-05C22.8627 5.55376e-05 19.3289 0.583618 16.7158 3.24207C14.1222 0.557682 10.5625 5.55376e-05 7.97535 5.55376e-05C6.39779 -0.00383488 4.82638 0.196684 3.30037 0.596586C3.01426 0.679743 2.82169 0.94729 2.83352 1.24499V1.99065H0.648402C0.290322 1.99065 0 2.28097 0 2.63905V23.349C0 23.7071 0.290322 23.9974 0.648402 23.9974C0.759766 23.9971 0.869183 23.9681 0.96612 23.9131C1.03096 23.8807 7.51498 20.334 16.5667 22.6163H16.6639H16.7223C16.774 22.6226 16.8262 22.6226 16.8779 22.6163C25.9555 20.3145 32.4396 23.8548 32.4785 23.9131C32.6791 24.029 32.9263 24.029 33.1269 23.9131C33.3263 23.798 33.4497 23.5858 33.4511 23.3555V2.64554C33.4511 2.28746 33.1608 1.99713 32.8027 1.99713ZM1.2968 22.3181V3.29394H2.84649V19.5559C2.84243 19.914 3.12943 20.2075 3.48751 20.2116C3.52253 20.212 3.55754 20.2095 3.59215 20.2043C4.93353 19.9995 6.2878 19.8911 7.64466 19.8801C9.52422 19.8475 11.3959 20.1302 13.182 20.7165C9.14855 20.2288 5.0573 20.7801 1.2968 22.3181ZM7.64466 18.5898C6.4653 18.5924 5.28732 18.6682 4.11736 18.8167V1.75723C5.37979 1.47598 6.66898 1.33244 7.96238 1.32928C10.3874 1.32928 13.7332 1.88691 16.0544 4.50645L16.0739 20.6582C14.7252 19.7763 12.0927 18.5898 7.64466 18.5898ZM17.3707 4.50645C19.692 1.91284 23.0377 1.32928 25.4628 1.32928C26.7561 1.33309 28.0453 1.47655 29.3078 1.75723V18.8167C28.1444 18.6668 26.9729 18.5889 25.7999 18.5833C21.3778 18.5833 18.7388 19.7698 17.3707 20.6517V4.50645ZM32.1478 22.3181C28.3793 20.7758 24.2786 20.2245 20.2366 20.7165C22.0312 20.1281 23.9118 19.8453 25.7999 19.8801C27.1653 19.8877 28.5283 19.9939 29.8784 20.1978C30.2324 20.2515 30.563 20.0081 30.6168 19.654C30.622 19.6194 30.6245 19.5844 30.624 19.5494V3.29394H32.1737L32.1478 22.3181Z" fill="#17A085"/>
</svg>
