<svg width="38" height="35" viewBox="0 0 38 35" fill="none" xmlns="http://www.w3.org/2000/svg">
<path d="M35.939 0H2.06102C0.924545 0 0 0.936525 0 2.08772V9.64688C0 9.96111 0.251648 10.2163 0.562149 10.2163C0.87265 10.2163 1.1243 9.96111 1.1243 9.64688V2.08772C1.1243 1.56469 1.54468 1.13887 2.06102 1.13887H35.939C36.4556 1.13887 36.8757 1.56469 36.8757 2.08772V24.8644C36.8757 25.3878 36.4553 25.8133 35.939 25.8133H24.3008C24.3388 25.5531 24.3588 25.287 24.3588 25.016C24.3588 24.7452 24.3388 24.4791 24.3008 24.219H31.5917C31.9022 24.219 32.1538 23.964 32.1538 23.6495C32.1538 22.2052 33.3138 21.0302 34.7396 21.0302C35.0501 21.0302 35.3017 20.7753 35.3017 20.4608V10.7746C35.3017 10.4601 35.0501 10.2052 34.7396 10.2052C34.4291 10.2052 34.1774 10.4601 34.1774 10.7746V19.9346C32.5809 20.1815 31.3157 21.4628 31.0721 23.0801H24.0054C23.2339 21.0405 21.2816 19.5877 19 19.5877C16.7184 19.5877 14.7661 21.0405 13.9946 23.0801H6.92786C6.68433 21.4628 5.41913 20.1815 3.82256 19.9346V7.01762C5.41913 6.77064 6.68433 5.48934 6.92786 3.87208H31.0721C31.316 5.48934 32.5809 6.77064 34.1774 7.01762V8.1189C34.1774 8.43342 34.4294 8.68833 34.7396 8.68833C35.0501 8.68833 35.3017 8.43342 35.3017 8.1189V6.49136C35.3017 6.17683 35.0501 5.92192 34.7396 5.92192C33.3138 5.92192 32.1538 4.74694 32.1538 3.30265C32.1538 2.98813 31.9022 2.73322 31.5917 2.73322H6.40833C6.09782 2.73322 5.84618 2.98813 5.84618 3.30265C5.84618 4.74694 4.68622 5.92192 3.26041 5.92192C2.94991 5.92192 2.69826 6.17683 2.69826 6.49136V20.4608C2.69826 20.7753 2.94991 21.0302 3.26041 21.0302C4.68622 21.0302 5.84618 22.2052 5.84618 23.6495C5.84618 23.964 6.09782 24.219 6.40833 24.219H13.6992C13.6612 24.4794 13.6412 24.7455 13.6412 25.0163C13.6412 25.287 13.6612 25.5531 13.6992 25.8136H2.06102C1.54439 25.8136 1.1243 25.3878 1.1243 24.8644V12.2946C1.1243 11.9801 0.87265 11.7252 0.562149 11.7252C0.251648 11.7252 0 11.9801 0 12.2946V24.8644C0 26.0156 0.924545 26.9522 2.06102 26.9522H13.9946C14.1842 27.4538 14.4454 27.9195 14.7652 28.3371V34.4306C14.7652 34.6203 14.8585 34.7974 15.0139 34.9031C15.1693 35.0088 15.3665 35.0294 15.5398 34.9577L19 33.5269L22.4602 34.9577C22.5286 34.9859 22.6008 35 22.6724 35C22.7825 35 22.8921 34.9671 22.9861 34.9031C23.1415 34.7974 23.2348 34.6203 23.2348 34.4306V32.8019C23.2348 32.4873 22.9829 32.2324 22.6727 32.2324C22.3622 32.2324 22.1105 32.4873 22.1105 32.8019V33.583L19.2125 32.3848C19.0762 32.3287 18.9238 32.3287 18.7875 32.3848L15.8895 33.583V29.4325C16.7673 30.0686 17.8409 30.4445 19 30.4445C20.1591 30.4445 21.2327 30.0686 22.1105 29.4325V30.1409C22.1105 30.4554 22.3622 30.7103 22.6727 30.7103C22.9829 30.7103 23.2348 30.4554 23.2348 30.1409V28.3371C23.5546 27.9195 23.8158 27.4538 24.0054 26.9522H35.939C37.0755 26.9522 38 26.0156 38 24.8644V2.08772C38 0.936525 37.0755 0 35.939 0ZM19 29.3057C16.665 29.3057 14.7652 27.3815 14.7652 25.0163C14.7652 22.651 16.665 20.7266 19 20.7266C21.335 20.7266 23.2348 22.651 23.2348 25.0163C23.2348 27.3815 21.335 29.3057 19 29.3057Z" fill="#17A085"/>
<path d="M23.9469 7.51628C24.2574 7.51628 24.509 7.26137 24.509 6.94685C24.509 6.63232 24.2574 6.37741 23.9469 6.37741H14.0532C13.7427 6.37741 13.491 6.63232 13.491 6.94685C13.491 7.26137 13.7427 7.51628 14.0532 7.51628H23.9469Z" fill="#17A085"/>
<path d="M27.6943 9.41427H10.3057C9.99518 9.41427 9.74353 9.66918 9.74353 9.9837C9.74353 10.2982 9.99518 10.5531 10.3057 10.5531H27.6943C28.0048 10.5531 28.2565 10.2982 28.2565 9.9837C28.2565 9.66918 28.0048 9.41427 27.6943 9.41427Z" fill="#17A085"/>
<path d="M27.6943 12.4512H10.3057C9.99518 12.4512 9.74353 12.7061 9.74353 13.0206C9.74353 13.3352 9.99518 13.5901 10.3057 13.5901H27.6943C28.0048 13.5901 28.2565 13.3352 28.2565 13.0206C28.2565 12.7061 28.0048 12.4512 27.6943 12.4512Z" fill="#17A085"/>
<path d="M27.6943 15.9435H24.9961C24.6856 15.9435 24.4339 16.1984 24.4339 16.5129C24.4339 16.8274 24.6856 17.0824 24.9961 17.0824H27.6943C28.0048 17.0824 28.2565 16.8274 28.2565 16.5129C28.2565 16.1984 28.0048 15.9435 27.6943 15.9435Z" fill="#17A085"/>
<path d="M10.3057 15.9435C9.99518 15.9435 9.74353 16.1984 9.74353 16.5129C9.74353 16.8274 9.99518 17.0824 10.3057 17.0824H13.0039C13.3144 17.0824 13.5661 16.8274 13.5661 16.5129C13.5661 16.1984 13.3144 15.9435 13.0039 15.9435H10.3057Z" fill="#17A085"/>
<path d="M19 22.0173C17.3675 22.0173 16.0394 23.3626 16.0394 25.0163C16.0394 26.67 17.3675 28.0153 19 28.0153C20.6325 28.0153 21.9606 26.67 21.9606 25.0163C21.9606 23.3626 20.6325 22.0173 19 22.0173ZM19 26.8764C17.9873 26.8764 17.1637 26.0418 17.1637 25.0163C17.1637 23.9905 17.9873 23.1562 19 23.1562C20.0127 23.1562 20.8363 23.9905 20.8363 25.0163C20.8363 26.0418 20.0127 26.8764 19 26.8764Z" fill="#17A085"/>
<path d="M17.0889 16.5129C17.0889 17.5804 17.9462 18.4488 19 18.4488C20.0538 18.4488 20.9111 17.5804 20.9111 16.5129C20.9111 15.4454 20.0538 14.577 19 14.577C17.9462 14.577 17.0889 15.4454 17.0889 16.5129ZM19.7871 16.5129C19.7871 16.9526 19.434 17.3103 19 17.3103C18.566 17.3103 18.2129 16.9526 18.2129 16.5129C18.2129 16.0733 18.566 15.7156 19 15.7156C19.434 15.7156 19.7871 16.0733 19.7871 16.5129Z" fill="#17A085"/>
</svg>
