<svg width="38" height="39" viewBox="0 0 38 39" fill="none" xmlns="http://www.w3.org/2000/svg">
<path d="M8.44939 6.98195H1.23247L1.1091 6.87501C0.79129 6.63352 0.528198 6.32611 0.337467 5.97339C0.146735 5.62067 0.0327711 5.23079 0.00321455 4.82989C-0.0129634 4.52736 0.0320449 4.22468 0.135488 3.94035C0.238931 3.65602 0.398634 3.39601 0.604833 3.17623C0.811033 2.95645 1.05939 2.7815 1.33473 2.6621C1.61007 2.54269 1.9066 2.48134 2.20618 2.48178C2.53222 0.998058 4.14039 0 5.51063 0C6.88088 0 7.95152 0.980235 8.19825 2.48178H9.46716L9.59053 2.59317C9.90404 2.8397 10.1623 3.15062 10.3484 3.50543C10.5345 3.86025 10.6441 4.2509 10.67 4.65166C10.6806 4.96014 10.6287 5.26755 10.5173 5.55492C10.4059 5.8423 10.2374 6.10354 10.0223 6.32252C9.81651 6.53248 9.57145 6.69891 9.3014 6.81213C9.03135 6.92534 8.74172 6.98307 8.44939 6.98195ZM1.55851 6.09083H8.44939C8.62907 6.09108 8.8069 6.0543 8.97204 5.98271C9.13719 5.91112 9.28616 5.80623 9.40987 5.67446C9.53357 5.54269 9.62942 5.38679 9.69154 5.2163C9.75366 5.0458 9.78076 4.86429 9.77117 4.68285C9.73073 4.17602 9.49496 3.70556 9.11469 3.3729H7.39637L7.36994 2.95407C7.30385 1.95602 6.78395 0.891123 5.51063 0.891123C4.39593 0.891123 3.08737 1.78225 3.01247 2.95407L2.98603 3.3729H2.22381C2.04335 3.37257 1.86473 3.40962 1.69897 3.48175C1.53321 3.55388 1.3838 3.65958 1.25997 3.79232C1.13613 3.92507 1.04049 4.08205 0.978931 4.2536C0.91737 4.42514 0.891198 4.60762 0.902025 4.78979C0.942387 5.29412 1.17838 5.76182 1.55851 6.09083Z" fill="#17A085"/>
<path d="M34.6162 9.7177H27.4169C26.9232 9.71447 26.4414 9.56388 26.032 9.28481C25.6225 9.00574 25.3037 8.61062 25.1155 8.14901C24.9272 7.6874 24.878 7.17986 24.9739 6.69005C25.0698 6.20025 25.3066 5.74999 25.6546 5.39575C25.885 5.15991 26.1594 4.9727 26.462 4.84497C26.7645 4.71723 27.0891 4.65153 27.4169 4.65166C27.7738 2.94071 29.6199 1.78225 31.1972 1.78225C32.7746 1.78225 33.9862 2.91843 34.2505 4.65166H34.5942C34.932 4.63733 35.2691 4.69224 35.5854 4.81307C35.9016 4.93391 36.1904 5.11818 36.4344 5.35481C36.6784 5.59143 36.8726 5.87552 37.0052 6.18999C37.1379 6.50445 37.2063 6.8428 37.2063 7.18468C37.2063 7.52656 37.1379 7.86491 37.0052 8.17937C36.8726 8.49384 36.6784 8.77793 36.4344 9.01455C36.1904 9.25118 35.9016 9.43545 35.5854 9.55628C35.2691 9.67712 34.932 9.73203 34.5942 9.7177H34.6162ZM27.4169 5.54279C27.001 5.56471 26.6092 5.74725 26.3224 6.05276C26.0356 6.35828 25.8758 6.76344 25.8758 7.18468C25.8758 7.60592 26.0356 8.01108 26.3224 8.3166C26.6092 8.62211 27.001 8.80465 27.4169 8.82657H34.6162C35.0459 8.8254 35.4576 8.65227 35.7615 8.34503C36.0653 8.03778 36.2365 7.62141 36.2376 7.18691C36.2376 6.75163 36.0669 6.33412 35.763 6.02591C35.4591 5.71771 35.0467 5.54397 34.6162 5.54279H33.4619L33.4355 5.12841C33.3605 3.93876 32.7393 2.67337 31.2325 2.67337C29.9107 2.67337 28.3642 3.72044 28.2717 5.12841L28.2453 5.54279H27.4169Z" fill="#17A085"/>
<path d="M20.2 39C10.3836 39 2.40004 31.5591 2.40004 22.4117V21.9662H38V22.4117C38 31.5591 30.0164 39 20.2 39ZM3.28564 22.8573C3.54118 31.323 11.0313 38.1089 20.2 38.1089C29.3688 38.1089 36.8589 31.3052 37.1144 22.8573H3.28564Z" fill="#17A085"/>
<path d="M15.9791 22.6434L15.2301 22.1979L20.1736 14.0085C20.281 13.8381 20.4296 13.6983 20.6054 13.6024C20.7812 13.5065 20.9784 13.4576 21.1781 13.4604C21.3772 13.4596 21.5731 13.5109 21.7468 13.6092C21.9205 13.7076 22.0661 13.8497 22.1695 14.0218L26.9323 22.1845L26.1745 22.6301L21.4117 14.4763C21.3841 14.4374 21.3477 14.4057 21.3055 14.384C21.2634 14.3623 21.2167 14.3512 21.1693 14.3515C21.1222 14.3495 21.0753 14.3594 21.033 14.3805C20.9907 14.4015 20.9542 14.4329 20.927 14.4718L15.9791 22.6434Z" fill="#17A085"/>
<path d="M34.4929 22.6523L27.9765 12.1505C27.9383 12.0954 27.8875 12.0504 27.8284 12.0194C27.7694 11.9884 27.7038 11.9722 27.6372 11.9722C27.5685 11.9656 27.4992 11.9769 27.436 12.005C27.3728 12.0331 27.3177 12.077 27.276 12.1326L23.9318 17.5195L23.1872 17.0472L26.549 11.6292C26.6745 11.4545 26.84 11.3131 27.0314 11.2172C27.2228 11.1213 27.4342 11.0738 27.6477 11.0786C27.8612 11.0834 28.0704 11.1405 28.2573 11.2449C28.4443 11.3493 28.6034 11.498 28.7211 11.6782L35.2375 22.1756L34.4929 22.6523Z" fill="#17A085"/>
<path d="M17.5697 32.526C16.9518 32.5286 16.346 32.3531 15.8232 32.0201C15.3004 31.6871 14.8823 31.2104 14.6177 30.6457C13.7365 28.6897 10.6524 28.5382 9.74033 28.5382C7.94271 28.5382 7.00865 23.8955 6.76192 22.4741L7.64311 22.3182C8.0837 24.8401 9.0486 27.6649 9.75355 27.6649C10.811 27.6649 14.3533 27.8565 15.4328 30.3026C15.6461 30.7333 15.9811 31.0903 16.3953 31.3282C16.8094 31.5662 17.2841 31.6745 17.7591 31.6393C18.3275 31.5948 19.3541 31.2873 19.7903 29.71C20.0783 28.6362 20.5382 27.6172 21.1517 26.6936C21.4203 26.2872 21.5244 25.792 21.4424 25.3103C21.3604 24.8286 21.0986 24.397 20.7111 24.1049L19.0589 22.7682L19.614 22.0731L21.2663 23.4098C21.8233 23.8444 22.1967 24.4764 22.3112 25.1784C22.4256 25.8804 22.2727 26.6002 21.8831 27.1926C21.3243 28.0348 20.9047 28.9633 20.6406 29.9417C20.2 31.4789 19.1911 32.4191 17.8252 32.5215C17.7402 32.5282 17.6549 32.5296 17.5697 32.526Z" fill="#17A085"/>
<path d="M25.0642 37.8727C25.0377 37.7524 24.4253 34.9187 25.562 33.4795C25.7799 33.2056 26.0587 32.9878 26.3757 32.8438C26.6928 32.6997 27.039 32.6336 27.3861 32.6507C29.8799 32.6507 31.4924 31.4878 31.4924 29.6878C31.4924 28.9392 31.4528 28.9259 30.9593 28.7655C30.1917 28.5421 29.4899 28.1321 28.915 27.5713C28.7201 27.4329 28.5749 27.2344 28.501 27.0054C28.4271 26.7765 28.4286 26.5295 28.5052 26.3015C29.2851 24.2876 37.3171 24.1984 37.392 24.1984V25.0896C33.691 25.0896 29.6199 25.8648 29.3291 26.6223C29.3027 26.6891 29.4128 26.8228 29.5098 26.9164C29.9894 27.3899 30.5786 27.7345 31.2237 27.9189C31.9374 28.1461 32.3736 28.3644 32.3736 29.7011C32.3736 31.617 30.8315 33.5552 27.3861 33.5552C27.1714 33.5406 26.9564 33.5779 26.7587 33.6639C26.5611 33.7499 26.3865 33.8821 26.2494 34.0498C25.5224 34.9677 25.7691 36.9861 25.9233 37.69L25.0642 37.8727Z" fill="#17A085"/>
<path d="M0.54955 19.0567L2.34277 17.2432L0.580392 16.7442L2.52782 13.6253L1.30737 13.1441L4.01262 9.05827C4.07747 8.95959 4.17843 8.89102 4.29328 8.86762C4.40813 8.84422 4.52747 8.86792 4.62504 8.93351C4.72261 8.99909 4.79043 9.10119 4.81356 9.21734C4.8367 9.33348 4.81326 9.45417 4.74841 9.55284L2.65118 12.7163L3.81875 13.1619L1.93742 16.2051L4.03905 16.7977L2.68202 18.1655H4.46643C4.58328 18.1655 4.69535 18.2125 4.77797 18.296C4.8606 18.3796 4.90702 18.4929 4.90702 18.6111C4.90702 18.7293 4.8606 18.8426 4.77797 18.9262C4.69535 19.0097 4.58328 19.0567 4.46643 19.0567H0.54955Z" fill="#17A085"/>
<path d="M4.46202 22.8618C4.34517 22.8618 4.2331 22.8148 4.15047 22.7313C4.06785 22.6477 4.02143 22.5344 4.02143 22.4162V18.1655H6.54603L5.189 16.7977L7.29063 16.2051L5.40489 13.1797L6.53722 12.7341L4.11395 9.58403C4.07837 9.5378 4.05214 9.48494 4.03675 9.42847C4.02137 9.37199 4.01714 9.313 4.0243 9.25487C4.03876 9.13747 4.09874 9.03069 4.19106 8.95801C4.28337 8.88534 4.40045 8.85273 4.51654 8.86735C4.63263 8.88197 4.73823 8.94263 4.81009 9.03599L7.95593 13.1307L6.72227 13.6208L8.66969 16.7397L6.88088 17.2432L8.6785 19.0567H4.90261V22.4162C4.90261 22.5344 4.8562 22.6477 4.77357 22.7313C4.69094 22.8148 4.57887 22.8618 4.46202 22.8618Z" fill="#17A085"/>
<path d="M14.3357 18.874H10.4233L12.2165 17.0606L10.4541 16.5615L12.4015 13.4426L11.1899 12.9569L13.8995 8.87113C13.9648 8.77418 14.0653 8.70718 14.1791 8.68466C14.2929 8.66213 14.411 8.68591 14.5076 8.75083C14.6003 8.81737 14.664 8.91759 14.6853 9.03052C14.7067 9.14345 14.684 9.26035 14.6221 9.35679L12.5117 12.5336L13.6792 12.9792L11.8111 16.0402L13.9128 16.6284L12.5513 18.0007H14.3137C14.4305 18.0007 14.5426 18.0476 14.6252 18.1312C14.7079 18.2147 14.7543 18.3281 14.7543 18.4462C14.7543 18.5644 14.7079 18.6777 14.6252 18.7613C14.5426 18.8449 14.4305 18.8918 14.3137 18.8918L14.3357 18.874Z" fill="#17A085"/>
<path d="M14.3357 22.8573C14.2189 22.8573 14.1068 22.8104 14.0242 22.7268C13.9415 22.6432 13.8951 22.5299 13.8951 22.4117V17.9829H16.4241L15.0671 16.6105L17.1643 16.0402L15.283 13.0104L16.4109 12.5648L13.9877 9.41026C13.9247 9.31639 13.8995 9.20178 13.9173 9.08979C13.935 8.9778 13.9943 8.87686 14.083 8.80754C14.1718 8.73823 14.2834 8.70575 14.395 8.71674C14.5066 8.72773 14.6099 8.78135 14.6838 8.86667L17.8296 12.9614L16.596 13.4515L18.5434 16.5704L16.781 17.0695L18.5742 18.8829H14.7763V22.4117C14.7763 22.5299 14.7299 22.6432 14.6473 22.7268C14.5646 22.8104 14.4526 22.8573 14.3357 22.8573Z" fill="#17A085"/>
</svg>
