<svg width="28" height="34" viewBox="0 0 28 34" fill="none" xmlns="http://www.w3.org/2000/svg">
<path d="M15.2868 8.81566V8.37269C16.229 8.28129 16.8618 7.74691 16.8618 6.93129C16.8618 6.68519 16.8196 6.47426 16.7212 6.29144C16.5032 5.8766 16.0391 5.60238 15.2587 5.40551V3.9852C15.5118 4.04145 15.7579 4.15395 16.018 4.30863C16.0954 4.35082 16.1657 4.37895 16.243 4.37895C16.4751 4.37895 16.6579 4.20316 16.6579 3.97113C16.6579 3.79535 16.5524 3.68285 16.4329 3.61254C16.0954 3.4016 15.7227 3.25395 15.2868 3.20473V3.04301C15.2868 2.86723 15.1462 2.7266 14.9704 2.7266C14.7946 2.7266 14.6469 2.86723 14.6469 3.04301V3.1977C14.3587 3.21879 14.0915 3.2891 13.8735 3.4016C13.5993 3.5352 13.3813 3.7391 13.2477 3.9852C13.1493 4.16801 13.093 4.37895 13.093 4.61098C13.093 4.94848 13.1774 5.21566 13.3462 5.43363C13.5923 5.75707 14.0352 5.96801 14.6751 6.12973V7.58519C14.2673 7.50785 13.9298 7.3391 13.5782 7.09301C13.5079 7.04379 13.4235 7.01566 13.3321 7.01566C13.1001 7.01566 12.9243 7.19144 12.9243 7.42348C12.9243 7.57816 13.0016 7.69769 13.1212 7.77504C13.5712 8.09144 14.0844 8.29535 14.6399 8.3516V8.80863C14.6399 8.98441 14.7876 9.12504 14.9633 9.12504C15.1462 9.13207 15.2868 8.99144 15.2868 8.81566ZM15.2587 6.27738C15.2727 6.28441 15.2798 6.28441 15.2938 6.29144C15.8352 6.46723 15.9899 6.6641 15.9899 6.98051C15.9899 7.33207 15.7298 7.57113 15.2587 7.62738V6.27738ZM14.6751 5.25082C14.5626 5.21566 14.4641 5.17348 14.3798 5.13832C14.0563 4.98363 13.9649 4.81488 13.9649 4.56176C13.9649 4.23832 14.204 3.9852 14.6751 3.94301V5.25082Z" fill="#17A085"/>
<path d="M11.8344 13.7165C9.95005 12.9782 7.79849 13.3087 6.21646 14.5743C6.07583 14.6868 6.01255 14.8626 6.03364 15.0313C6.34302 17.0353 7.70005 18.7298 9.58442 19.4681C10.2524 19.7282 10.9485 19.8548 11.6446 19.8548C12.6008 19.8548 13.5501 19.6157 14.4008 19.1446V22.829L10.611 22.1329C10.4774 22.1118 10.3438 22.1399 10.2313 22.2173L5.77349 25.4728V24.6782C5.77349 24.404 5.55552 24.186 5.2813 24.186H0.577393C0.303174 24.186 0.0852051 24.404 0.0852051 24.6782V33.397C0.0852051 33.6712 0.303174 33.8892 0.577393 33.8892H5.2813C5.55552 33.8892 5.77349 33.6712 5.77349 33.397V32.0399L21.0172 32.7642C21.0243 32.7642 21.0313 32.7642 21.0383 32.7642C21.193 32.7642 21.3336 32.6938 21.4251 32.5743L27.5633 24.6642C27.7883 24.3688 27.9149 24.0173 27.9149 23.6446C27.9149 23.047 27.5915 22.4915 27.0711 22.1962C26.4805 21.8657 25.7633 21.9149 25.229 22.3298C25.1657 22.379 25.1024 22.4353 25.0391 22.4985L20.286 27.5259L15.8633 26.3235L19.5407 25.7188C19.7516 25.6837 19.9133 25.522 19.9485 25.311L20.0961 24.3548C20.1383 24.0946 19.9625 23.8415 19.6954 23.7923L15.3711 22.9978V19.1306C16.2219 19.5946 17.1711 19.8407 18.1274 19.8407C18.8235 19.8407 19.5266 19.7142 20.1875 19.454C22.0719 18.7157 23.429 17.0212 23.7383 15.0173C23.7665 14.8415 23.6961 14.6657 23.5555 14.5603C21.9735 13.2946 19.8219 12.9712 17.9375 13.7024C16.8899 14.1103 15.9969 14.8274 15.3641 15.7204V11.7126C18.3454 11.4595 20.6938 8.95635 20.6938 5.91885C20.6938 5.06807 20.518 4.24541 20.1594 3.48604C20.061 3.2751 19.9555 3.07822 19.843 2.89541C19.836 2.88135 19.829 2.86729 19.8219 2.85322C19.0415 1.60166 17.8321 0.694629 16.4118 0.30791C15.9125 0.174316 15.3993 0.104004 14.8719 0.104004C12.8469 0.104004 10.9977 1.13057 9.92896 2.85322C9.92192 2.86729 9.9149 2.88135 9.90786 2.89541C9.82349 3.029 9.74614 3.16963 9.67583 3.31025C9.28208 4.13291 9.07817 5.01182 9.07817 5.93291C9.07817 6.10869 9.08521 6.27041 9.09927 6.41104C9.24693 8.24619 10.2805 9.91963 11.8555 10.8899C12.629 11.3681 13.5008 11.6493 14.4079 11.7267V15.7274C13.768 14.8345 12.8821 14.1243 11.8344 13.7165ZM9.94302 18.547C8.47349 17.9704 7.39067 16.6907 7.06021 15.1649C8.33989 14.2649 10.0063 14.061 11.4758 14.6306C12.9454 15.2001 14.0282 16.4868 14.3586 18.0126C13.0719 18.9126 11.4126 19.1235 9.94302 18.547ZM4.78911 32.9048H1.06958V25.1704H4.78911V32.9048ZM19.0415 24.8118L13.4727 25.7188C13.2407 25.754 13.0719 25.9509 13.0579 26.1759C13.0438 26.4079 13.1985 26.6189 13.4235 26.6751L20.3211 28.5524C20.4969 28.6017 20.6797 28.5454 20.8063 28.4188L25.7563 23.1806C25.7774 23.1524 25.8055 23.1313 25.8336 23.1103C26.0516 22.9415 26.3469 22.9204 26.586 23.054C26.804 23.1735 26.9305 23.3985 26.9305 23.6446C26.9305 23.7923 26.8813 23.9399 26.7899 24.0595L20.8063 31.7657L5.77349 31.0556V26.6892L10.6461 23.1384L19.0625 24.6853L19.0415 24.8118ZM18.3172 14.6306C19.7868 14.054 21.4461 14.2649 22.7329 15.1649C22.4024 16.6978 21.3196 17.9774 19.8501 18.547C18.3805 19.1235 16.7211 18.9126 15.4344 18.0126C15.7649 16.4868 16.8477 15.2001 18.3172 14.6306ZM10.0766 6.32666C10.0625 6.20713 10.0625 6.08057 10.0625 5.93291C10.0625 5.1665 10.2383 4.43525 10.5758 3.76025C10.6391 3.63369 10.7024 3.51416 10.7727 3.40166C10.7797 3.39463 10.7868 3.3876 10.7868 3.37354C11.6797 1.94619 13.2126 1.09541 14.893 1.09541C15.329 1.09541 15.7579 1.15166 16.1727 1.26416C17.3469 1.5876 18.3524 2.33291 18.9993 3.37354C19.0063 3.38057 19.0063 3.3876 19.0133 3.39463C19.1118 3.54932 19.2032 3.71807 19.2876 3.90088C19.5829 4.53369 19.7305 5.21572 19.7305 5.92588C19.7305 8.59072 17.5649 10.7634 14.893 10.7634C14.0001 10.7634 13.1211 10.5173 12.3688 10.0532C11.061 9.24463 10.2032 7.85947 10.0766 6.32666Z" fill="#17A085"/>
</svg>
