<svg width="45" height="44" viewBox="0 0 45 44" fill="none" xmlns="http://www.w3.org/2000/svg">
<path d="M44.3622 14.4109H39.9449C39.4543 13.2634 38.8496 12.1676 38.1399 11.1398C37.8314 10.6935 37.5052 10.2636 37.1614 9.84992C37.4994 9.10791 37.6306 8.17449 37.5495 7.05875C37.5384 6.90589 37.4722 6.76219 37.363 6.65416C37.2538 6.54613 37.109 6.48105 36.9554 6.47094C35.8001 6.3884 34.8406 6.529 34.0853 6.89003C32.0762 5.35017 29.7768 4.22793 27.3236 3.58997C27.4595 2.94126 27.4991 2.27624 27.4412 1.6161C27.4302 1.46383 27.3644 1.3206 27.256 1.21264C27.1476 1.10469 27.0037 1.03925 26.8508 1.0283C25.0394 0.898582 23.7073 1.31767 22.8909 2.27376C22.766 2.41922 22.655 2.57592 22.5592 2.74182C22.4636 2.57497 22.3526 2.41736 22.2276 2.27104C21.4075 1.31494 20.08 0.89586 18.2677 1.02558C18.1147 1.03652 17.9709 1.10197 17.8624 1.20992C17.754 1.31787 17.6883 1.46111 17.6773 1.61338C17.6191 2.27137 17.6584 2.93429 17.7939 3.5809C17.2472 3.7212 16.7096 3.88599 16.1812 4.07527C14.1385 4.80932 12.2373 5.88654 10.5603 7.26013C9.74022 6.62515 8.57212 6.36118 7.07874 6.46822C6.92579 6.47917 6.78192 6.54462 6.67348 6.65257C6.56505 6.76052 6.49931 6.90375 6.48832 7.05603C6.37625 8.59811 6.67055 9.79005 7.35665 10.6119C5.18948 13.5362 3.91864 17.0223 3.69747 20.6497C3.47629 24.2771 4.31424 27.8907 6.11019 31.0545C6.9118 32.4605 7.89173 33.758 9.02588 34.9151H6.92203C6.33769 34.9158 5.77749 35.1473 5.36431 35.5586C4.95112 35.97 4.71867 36.5277 4.71795 37.1094C4.71795 37.3546 4.62013 37.5897 4.44601 37.763C4.27189 37.9364 4.03573 38.0338 3.78948 38.0338H0.637807C0.46865 38.0338 0.306421 38.1007 0.186809 38.2197C0.0671973 38.3388 0 38.5003 0 38.6687C0 38.8371 0.0671973 38.9986 0.186809 39.1177C0.306421 39.2368 0.46865 39.3037 0.637807 39.3037H3.78948C4.37373 39.303 4.93384 39.0715 5.34688 38.6602C5.75992 38.2488 5.99217 37.6911 5.99265 37.1094C5.99289 36.8643 6.09079 36.6294 6.26486 36.4561C6.43893 36.2828 6.67494 36.1853 6.92111 36.1851H10.3926C13.7837 39.032 18.075 40.5967 22.5109 40.6036H22.5592C25.083 40.6123 27.5824 40.1133 29.9077 39.1365C32.2329 38.1598 34.336 36.7255 36.0908 34.9197C36.7952 34.2001 37.4408 33.4257 38.0215 32.6038C39.7349 30.172 40.8468 27.3714 41.2664 24.4305C41.686 21.4895 41.4015 18.4915 40.436 15.6808H44.3622C44.5313 15.6808 44.6936 15.6139 44.8132 15.4948C44.9328 15.3757 45 15.2142 45 15.0458C45 14.8774 44.9328 14.7159 44.8132 14.5968C44.6936 14.4778 44.5313 14.4109 44.3622 14.4109ZM35.4748 10.0295C34.8489 10.5629 33.9678 10.5874 33.4539 10.5457C33.4129 10.035 33.4375 9.15961 33.9669 8.53915C34.4288 7.99489 35.2097 7.72275 36.2939 7.72275C36.2885 8.79405 36.0133 9.56962 35.4748 10.0295ZM23.8622 3.0965C24.3241 2.55224 25.105 2.28011 26.1893 2.28011C26.1838 3.35594 25.9086 4.13242 25.3692 4.59142C24.746 5.12026 23.8631 5.14566 23.3492 5.1003C23.3082 4.59232 23.3328 3.71697 23.8622 3.0965ZM21.2517 3.09106C21.7875 3.71424 21.8121 4.59232 21.7693 5.10303C21.2554 5.14475 20.3743 5.12026 19.7483 4.58688C19.2098 4.12788 18.9347 3.3514 18.9283 2.27557C20.008 2.28101 20.7898 2.55405 21.2517 3.09106ZM15.0003 7.71731C14.9948 8.79314 14.7206 9.56872 14.1803 10.0286C13.5543 10.5629 12.6723 10.5865 12.1593 10.5448C12.1174 10.0332 12.1411 9.15598 12.6769 8.5328C13.1397 7.9967 13.9197 7.72275 14.9967 7.71822L15.0003 7.71731ZM10.0628 8.53371C10.5985 9.15598 10.6231 10.0341 10.5812 10.5448C10.0682 10.5865 9.18806 10.562 8.56483 10.0341C8.01814 9.57507 7.7448 8.79677 7.7448 7.71822C8.82087 7.72366 9.60081 7.9967 10.0628 8.53371ZM9.88054 26.4863C9.89965 26.6291 9.90908 26.7731 9.90878 26.9172C9.90547 27.7066 9.61761 28.4687 9.09756 29.0646C8.5775 29.6606 7.85983 30.051 7.0751 30.1646C5.87858 27.9684 5.16622 25.5435 4.98554 23.0515C4.80485 20.5596 5.15999 18.058 6.02727 15.7135C6.95526 15.4544 7.94171 15.4937 8.84595 15.8258C9.75018 16.1578 10.526 16.7656 11.0628 17.5624C11.5997 18.3593 11.87 19.3046 11.8354 20.2635C11.8008 21.2223 11.4629 22.1458 10.87 22.9023C10.4762 23.4054 10.1862 23.981 10.0165 24.5961C9.84687 25.2111 9.80096 25.8535 9.88145 26.4863H9.88054ZM23.5278 39.3073C23.5278 39.2393 23.5278 39.1867 23.5278 39.1595C23.5283 38.4454 23.8133 37.7607 24.3203 37.2556C24.8273 36.7505 25.5148 36.4663 26.2321 36.4654C27.2936 36.4654 28.0608 37.0459 28.5182 37.5339C28.6921 37.7205 28.8492 37.9221 28.9874 38.1363C27.2421 38.8145 25.3988 39.2098 23.5278 39.3073ZM40.1791 21.8392C40.177 25.4321 39.0593 28.9366 36.9791 31.8727C35.2033 34.3862 32.7999 36.3952 30.0061 37.7018C29.8099 37.3761 29.5796 37.072 29.3191 36.7946C28.4635 35.883 27.3683 35.3805 26.2339 35.3805C25.2268 35.3819 24.2614 35.781 23.5495 36.4901C22.8375 37.1992 22.4372 38.1605 22.4362 39.1631C22.4362 39.193 22.4362 39.2538 22.4362 39.3355C19.3022 39.315 16.2306 38.4616 13.5388 36.8636C13.1798 36.6495 12.8296 36.4233 12.4883 36.1851H14.7616C14.9307 36.1851 15.093 36.1182 15.2126 35.9991C15.3322 35.88 15.3994 35.7185 15.3994 35.5501C15.3994 35.3817 15.3322 35.2202 15.2126 35.1011C15.093 34.982 14.9307 34.9151 14.7616 34.9151H10.871C9.6297 33.8186 8.54944 32.5538 7.66188 31.1579C8.71098 30.9009 9.62806 30.2679 10.2376 29.3798C10.8472 28.4918 11.1064 27.4112 10.9657 26.3448C10.9032 25.8546 10.9387 25.357 11.0702 24.8807C11.2017 24.4043 11.4267 23.9585 11.732 23.569C12.3997 22.7174 12.8078 21.693 12.9081 20.6174C13.0084 19.5417 12.7965 18.46 12.2977 17.5006C11.7988 16.5413 11.0339 15.7446 10.0938 15.2051C9.15374 14.6656 8.07789 14.406 6.99401 14.4571C6.8382 14.4644 6.6833 14.4789 6.52932 14.4988C7.02768 13.4089 7.63839 12.3735 8.35162 11.4092C8.94529 11.6965 9.59871 11.8401 10.2587 11.8283C10.3798 11.8283 10.4937 11.8283 10.5994 11.8174V14.0108C10.5994 14.1792 10.6666 14.3407 10.7862 14.4598C10.9059 14.5789 11.0681 14.6458 11.2372 14.6458C11.4064 14.6458 11.5686 14.5789 11.6882 14.4598C11.8079 14.3407 11.8751 14.1792 11.8751 14.0108V11.7929C12.0798 11.8167 12.2858 11.8285 12.4919 11.8283C13.2208 11.8283 14.2103 11.6759 15.0067 11.0019C15.967 10.1856 16.388 8.86208 16.2568 7.05875C16.2458 6.90662 16.1802 6.7635 16.072 6.65557C15.9637 6.54764 15.8201 6.4821 15.6673 6.47094C15.0542 6.41889 14.4369 6.44756 13.8313 6.55621C14.7199 6.04819 15.6516 5.61899 16.6158 5.27356C17.1579 5.07944 17.7092 4.91072 18.2668 4.77556C18.4443 5.07098 18.669 5.33568 18.9319 5.5593C19.7283 6.23328 20.7151 6.38568 21.4476 6.38568C21.6235 6.38568 21.7857 6.37751 21.926 6.36481V8.56818C21.926 8.73658 21.9932 8.89809 22.1128 9.01717C22.2324 9.13625 22.3946 9.20315 22.5638 9.20315C22.7329 9.20315 22.8952 9.13625 23.0148 9.01717C23.1344 8.89809 23.2016 8.73658 23.2016 8.56818V6.36481C23.3419 6.37751 23.5041 6.38568 23.6799 6.38568C24.4089 6.38568 25.3993 6.23328 26.1956 5.5593C26.4565 5.33707 26.6798 5.0746 26.8571 4.78191C29.0847 5.34039 31.1812 6.32641 33.0293 7.68465L33.0001 7.71731C32.8737 7.8623 32.7612 8.01869 32.6639 8.18447C32.5683 8.01762 32.4573 7.86001 32.3322 7.71368C31.5122 6.75759 30.1837 6.33851 28.3724 6.46822C28.2194 6.47917 28.0756 6.54462 27.9671 6.65257C27.8587 6.76052 27.7929 6.90375 27.782 7.05603C27.6507 8.85936 28.0717 10.1865 29.0321 10.9992C29.8284 11.6732 30.8152 11.8256 31.5468 11.8256C31.7172 11.8256 31.8721 11.8174 32.0088 11.8056V14.0081C32.0088 14.1765 32.076 14.338 32.1956 14.4571C32.3152 14.5762 32.4774 14.6431 32.6466 14.6431C32.8158 14.6431 32.978 14.5762 33.0976 14.4571C33.2172 14.338 33.2844 14.1765 33.2844 14.0081V11.8056C33.4293 11.8193 33.5969 11.8283 33.7801 11.8283C34.509 11.8283 35.4994 11.6759 36.2958 11.0019C36.3267 10.9756 36.3559 10.9475 36.3869 10.9194C36.6292 11.2242 36.8634 11.5371 37.0857 11.8601C37.6449 12.6679 38.1347 13.5212 38.5499 14.4109H36.5226C35.9385 14.4116 35.3786 14.6429 34.9656 15.0541C34.5525 15.4653 34.3202 16.0227 34.3195 16.6042C34.319 16.8492 34.221 17.0839 34.0469 17.257C33.8729 17.4301 33.637 17.5274 33.391 17.5277H30.2384C30.0693 17.5277 29.907 17.5946 29.7874 17.7137C29.6678 17.8327 29.6006 17.9943 29.6006 18.1627C29.6006 18.3311 29.6678 18.4926 29.7874 18.6117C29.907 18.7307 30.0693 18.7976 30.2384 18.7976H33.391C33.9753 18.7969 34.5355 18.5655 34.9487 18.1541C35.3619 17.7428 35.5944 17.1851 35.5951 16.6033C35.5956 16.3586 35.6934 16.124 35.8673 15.9509C36.0411 15.7778 36.2768 15.6804 36.5226 15.6799H39.0821C39.8159 17.6508 40.1875 19.7372 40.1791 21.8392ZM31.8739 10.543C31.36 10.5847 30.479 10.5602 29.853 10.0268C29.3136 9.5669 29.0393 8.79133 29.033 7.7155C30.1136 7.72094 30.8935 7.99398 31.3555 8.53189C31.8922 9.15689 31.9168 10.035 31.8739 10.543Z" fill="#17A085"/>
<path d="M28.0106 21.3974C27.3325 21.3981 26.6823 21.6666 26.2026 22.1439C25.723 22.6213 25.4531 23.2685 25.4521 23.9437C25.4521 24.1361 25.5289 24.3207 25.6656 24.4568C25.8023 24.5929 25.9877 24.6693 26.1811 24.6693C26.3744 24.6693 26.5598 24.5929 26.6965 24.4568C26.8332 24.3207 26.91 24.1361 26.91 23.9437C26.9182 23.6586 27.0377 23.388 27.2432 23.1893C27.4486 22.9906 27.7238 22.8794 28.0102 22.8794C28.2966 22.8794 28.5718 22.9906 28.7772 23.1893C28.9826 23.388 29.1022 23.6586 29.1104 23.9437C29.1104 24.1361 29.1872 24.3207 29.3239 24.4568C29.4606 24.5929 29.646 24.6693 29.8393 24.6693C30.0327 24.6693 30.2181 24.5929 30.3548 24.4568C30.4915 24.3207 30.5683 24.1361 30.5683 23.9437C30.5675 23.2686 30.2978 22.6213 29.8183 22.144C29.3389 21.6666 28.6887 21.3981 28.0106 21.3974Z" fill="#17A085"/>
<path d="M25.4467 26.9199C25.2533 26.9199 25.0679 26.9963 24.9312 27.1324C24.7945 27.2685 24.7177 27.4531 24.7177 27.6456C24.7177 28.2978 24.4575 28.9233 23.9943 29.3845C23.531 29.8456 22.9027 30.1047 22.2476 30.1047C21.5925 30.1047 20.9642 29.8456 20.501 29.3845C20.0377 28.9233 19.7775 28.2978 19.7775 27.6456C19.7775 27.4531 19.7007 27.2685 19.564 27.1324C19.4273 26.9963 19.2419 26.9199 19.0486 26.9199C18.8552 26.9199 18.6698 26.9963 18.5331 27.1324C18.3964 27.2685 18.3196 27.4531 18.3196 27.6456C18.3196 28.6827 18.7335 29.6774 19.4701 30.4107C20.2067 31.1441 21.2058 31.5561 22.2476 31.5561C23.2894 31.5561 24.2885 31.1441 25.0251 30.4107C25.7618 29.6774 26.1756 28.6827 26.1756 27.6456C26.1756 27.4531 26.0988 27.2685 25.9621 27.1324C25.8254 26.9963 25.64 26.9199 25.4467 26.9199Z" fill="#17A085"/>
<path d="M19.0631 23.9437C19.0505 23.2766 18.7754 22.641 18.2971 22.1737C17.8187 21.7064 17.1753 21.4446 16.5051 21.4446C15.8349 21.4446 15.1914 21.7064 14.7131 22.1737C14.2347 22.641 13.9597 23.2766 13.947 23.9437C13.947 24.1361 14.0238 24.3207 14.1605 24.4568C14.2972 24.5929 14.4826 24.6693 14.6759 24.6693C14.8693 24.6693 15.0547 24.5929 15.1914 24.4568C15.3281 24.3207 15.4049 24.1361 15.4049 23.9437C15.4131 23.6586 15.5326 23.388 15.7381 23.1893C15.9435 22.9906 16.2186 22.8794 16.5051 22.8794C16.7915 22.8794 17.0667 22.9906 17.2721 23.1893C17.4775 23.388 17.597 23.6586 17.6053 23.9437C17.6053 24.1361 17.6821 24.3207 17.8188 24.4568C17.9555 24.5929 18.1409 24.6693 18.3342 24.6693C18.5275 24.6693 18.7129 24.5929 18.8496 24.4568C18.9863 24.3207 19.0631 24.1361 19.0631 23.9437Z" fill="#17A085"/>
<path d="M41.8073 39.9931C40.7823 39.5704 40.5654 39.3536 40.1445 38.334C40.072 38.16 39.9494 38.0113 39.7921 37.9067C39.6348 37.802 39.4498 37.7462 39.2607 37.7462C39.0715 37.7462 38.8865 37.802 38.7292 37.9067C38.5719 38.0113 38.4493 38.16 38.3768 38.334C37.9522 39.3536 37.7345 39.5704 36.7103 39.9931C36.5356 40.0652 36.3862 40.1873 36.2811 40.3439C36.176 40.5005 36.1199 40.6847 36.1199 40.873C36.1199 41.0614 36.176 41.2455 36.2811 41.4021C36.3862 41.5587 36.5356 41.6808 36.7103 41.7529C37.7126 42.1656 37.9613 42.4142 38.3759 43.4111C38.4482 43.5854 38.5708 43.7344 38.7283 43.8392C38.8857 43.944 39.0708 44 39.2602 44C39.4496 44 39.6347 43.944 39.7921 43.8392C39.9496 43.7344 40.0722 43.5854 40.1445 43.4111C40.559 42.4133 40.8087 42.1647 41.8101 41.752C41.9848 41.6799 42.1342 41.5578 42.2393 41.4012C42.3444 41.2446 42.4005 41.0604 42.4005 40.8721C42.4005 40.6838 42.3444 40.4996 42.2393 40.343C42.1342 40.1864 41.9848 40.0643 41.8101 39.9922L41.8073 39.9931ZM39.2561 42.7045C38.8187 41.7493 38.3759 41.3084 37.4165 40.873C38.3859 40.4358 38.816 40.0076 39.2561 39.0416C39.6953 40.0076 40.1253 40.4358 41.0957 40.873C40.1381 41.3084 39.6944 41.7475 39.2579 42.7045H39.2561Z" fill="#17A085"/>
<path d="M1.75124 4.00633C2.7535 4.41907 3.00225 4.66671 3.41682 5.66453C3.48925 5.83853 3.61188 5.98724 3.76919 6.09187C3.92651 6.19649 4.11145 6.25234 4.30064 6.25234C4.48983 6.25234 4.67477 6.19649 4.83209 6.09187C4.9894 5.98724 5.11203 5.83853 5.18446 5.66453C5.59994 4.66671 5.84869 4.41907 6.85096 4.00633C7.02566 3.93404 7.17494 3.81184 7.27996 3.65516C7.38497 3.49848 7.44102 3.31434 7.44102 3.12598C7.44102 2.93763 7.38497 2.75349 7.27996 2.59681C7.17494 2.44013 7.02566 2.31793 6.85096 2.24564C5.82682 1.82383 5.60905 1.61066 5.18537 0.587444C5.11275 0.413513 4.99001 0.264895 4.83263 0.160345C4.67525 0.0557955 4.49029 0 4.3011 0C4.1119 0 3.92694 0.0557955 3.76956 0.160345C3.61218 0.264895 3.48944 0.413513 3.41682 0.587444C2.99314 1.60703 2.77902 1.82383 1.75124 2.24564C1.57653 2.31793 1.42725 2.44013 1.32223 2.59681C1.21722 2.75349 1.16117 2.93763 1.16117 3.12598C1.16117 3.31434 1.21722 3.49848 1.32223 3.65516C1.42725 3.81184 1.57653 3.93404 1.75124 4.00633ZM4.30246 1.29499C4.74073 2.26106 5.17079 2.68831 6.14026 3.12644C5.18081 3.55822 4.73799 4.0027 4.30064 4.95789C3.8642 4.0027 3.42502 3.55822 2.46102 3.12644C3.4314 2.68831 3.86146 2.26106 4.30064 1.29499H4.30246Z" fill="#17A085"/>
</svg>
