<svg width="29" height="30" viewBox="0 0 29 30" fill="none" xmlns="http://www.w3.org/2000/svg">
<path d="M17.5 25.5H21C21.8284 25.5 22.5 24.8284 22.5 24V20H23.5C23.7761 20 24 19.7761 24 19.5V16.9746C26.8298 16.7139 28.9963 14.3418 29 11.5V7.5C29 6.67163 28.3284 6 27.5 6H27V1.5C27 0.671631 26.3284 0 25.5 0C24.6716 0 24 0.671631 24 1.5V6H20V1.5C20 0.671631 19.3284 0 18.5 0C17.6716 0 17 0.671631 17 1.5V6H16.5C15.6716 6 15 6.67163 15 7.5V11.5C15.0037 14.3418 17.1702 16.7139 20 16.9746V19.5C20 19.7761 20.2239 20 20.5 20H21.5V24C21.5 24.2761 21.2761 24.5 21 24.5H17.5C17.0383 24.5027 16.6035 24.717 16.3206 25.0818C16.0376 25.4465 15.9377 25.9211 16.05 26.3689C16.2336 27.0459 16.8535 27.512 17.5549 27.5H27.5C27.7761 27.5 28 27.7239 28 28V28.5C28 28.7761 27.7761 29 27.5 29H8.5C7.67163 29 7 28.3284 7 27.5V24.9746C10.3826 24.7117 12.9949 21.8928 13 18.5V9.83496C12.999 8.86157 12.6833 7.91455 12.1001 7.13501L6.8999 0.199951C6.80151 0.0805664 6.65479 0.0114746 6.5 0.0114746C6.34521 0.0114746 6.19849 0.0805664 6.1001 0.199951L0.899902 7.13403C0.31665 7.91382 0.000976562 8.86108 0 9.83496V18.5C0.00512695 21.8928 2.61743 24.7117 6 24.9746V27.5C6.00171 28.8801 7.11987 29.9983 8.5 30H27.5C28.3284 30 29 29.3284 29 28.5V28C29 27.1716 28.3284 26.5 27.5 26.5H17.5549C17.3118 26.5095 17.0918 26.3562 17.0171 26.1245C16.98 25.9751 17.0134 25.8171 17.1074 25.6953C17.2017 25.5737 17.3462 25.5017 17.5 25.5ZM25 1.5C25 1.22388 25.2239 1 25.5 1C25.7761 1 26 1.22388 26 1.5V7H25V1.5ZM18 1.5C18 1.22388 18.2239 1 18.5 1C18.7761 1 19 1.22388 19 1.5V7H18V1.5ZM20.0029 15.9709C17.7258 15.7153 16.0032 13.7915 16 11.5V7.5C16 7.22388 16.2239 7 16.5 7H17V7.5C17 7.77612 17.2239 8 17.5 8H19.5C19.7761 8 20 7.77612 20 7.5V7H24V7.5C24 7.77612 24.2239 8 24.5 8H26.5C26.7761 8 27 7.77612 27 7.5V7H27.5C27.7761 7 28 7.22388 28 7.5V11.5C27.9968 13.7915 26.2742 15.7153 23.9971 15.9709C23.9971 14.8682 23.103 13.9741 22 13.9741C20.897 13.9741 20.0029 14.8682 20.0029 15.9709ZM21 16C21 15.4478 21.4478 15 22 15C22.5522 15 23 15.4478 23 16V19H21V16ZM1 18.5V9.83496C1.00049 9.07788 1.24609 8.34106 1.69995 7.73511L6.5 1.3335L11.3 7.7334C11.7541 8.3396 11.9998 9.07617 12 9.8335V18.5C12 21.5376 9.5376 24 6.5 24C3.4624 24 1 21.5376 1 18.5Z" fill="#17A085"/>
<path d="M6.8291 22.876L10.8291 19.376L10.1709 18.626L7 21.3999V17.207L10.8535 13.3535L10.1465 12.6465L7 15.793V11.707L10.8535 7.85352L10.1465 7.14648L7 10.293V2.5H6V10.293L2.85352 7.14648L2.14648 7.85352L6 11.707V15.793L2.85352 12.6465L2.14648 13.3535L6 17.207V21.3999L2.8291 18.624L2.1709 19.374L6.1709 22.874C6.35937 23.0386 6.64062 23.0386 6.8291 22.874V22.876Z" fill="#17A085"/>
</svg>
