<svg width="33" height="33" viewBox="0 0 33 33" fill="none" xmlns="http://www.w3.org/2000/svg">
<path d="M3.62539 26.3133C3.45695 26.3133 3.28851 26.2345 3.18242 26.0869C-1.54696 19.5342 -0.825082 10.6234 4.89851 4.89875C11.2969 -1.4975 21.704 -1.4975 28.1024 4.89875C28.3157 5.11203 28.3157 5.45875 28.1024 5.67203C27.8891 5.88531 27.5424 5.88531 27.3291 5.67203C21.3573 -0.296563 11.6426 -0.296563 5.67179 5.67203C0.329918 11.0161 -0.343832 19.3319 4.06836 25.4459C4.24554 25.692 4.18976 26.0333 3.94585 26.2094C3.84851 26.2794 3.73586 26.3133 3.62539 26.3133Z" fill="#17A085"/>
<path d="M16.4999 32.8987C12.2977 32.8987 8.09663 31.2997 4.89851 28.1016C4.68523 27.8883 4.68523 27.5416 4.89851 27.3283C5.11179 27.115 5.45851 27.115 5.67179 27.3283C11.6426 33.2969 21.3583 33.2969 27.3291 27.3283C32.659 21.9952 33.3404 13.6881 28.9479 7.57625C28.7718 7.33015 28.8287 6.9889 29.0726 6.81281C29.3187 6.63671 29.6599 6.6925 29.836 6.9375C34.5424 13.4858 33.8129 22.3867 28.1013 28.1016C24.9032 31.2997 20.7021 32.8977 16.4999 32.8987Z" fill="#17A085"/>
<path d="M5.2846 30.953C4.98273 30.953 4.73773 30.708 4.73773 30.4061V27.7155C4.73773 27.4136 4.98273 27.1686 5.2846 27.1686H7.97632C8.2782 27.1686 8.5232 27.4136 8.5232 27.7155C8.5232 28.0173 8.2782 28.2624 7.97632 28.2624H5.83148V30.4061C5.83148 30.708 5.58648 30.953 5.2846 30.953Z" fill="#17A085"/>
<path d="M27.7152 5.83172H25.0235C24.7216 5.83172 24.4766 5.58672 24.4766 5.28485C24.4766 4.98297 24.7216 4.73797 25.0235 4.73797H27.1684V2.59422C27.1684 2.29235 27.4134 2.04735 27.7152 2.04735C28.0171 2.04735 28.2621 2.29235 28.2621 2.59422V5.28485C28.2621 5.58672 28.0171 5.83172 27.7152 5.83172Z" fill="#17A085"/>
<path d="M16.4999 28.5314C9.86631 28.5314 4.46866 23.1337 4.46866 16.5001C4.46866 9.86655 9.86631 4.4689 16.4999 4.4689C23.1335 4.4689 28.5312 9.86655 28.5312 16.5001C28.5312 23.1337 23.1335 28.5314 16.4999 28.5314ZM16.4999 5.56265C10.469 5.56265 5.56241 10.4692 5.56241 16.5001C5.56241 22.5311 10.469 27.4376 16.4999 27.4376C22.5308 27.4376 27.4374 22.5311 27.4374 16.5001C27.4374 10.4692 22.5308 5.56265 16.4999 5.56265Z" fill="#17A085"/>
<path d="M16.4999 28.5314C9.86631 28.5314 4.46866 23.1337 4.46866 16.5001C4.46866 9.86655 9.86631 4.4689 16.4999 4.4689C23.1335 4.4689 28.5312 9.86655 28.5312 16.5001C28.5312 23.1337 23.1335 28.5314 16.4999 28.5314ZM16.4999 5.56265C10.469 5.56265 5.56241 10.4692 5.56241 16.5001C5.56241 22.5311 10.469 27.4376 16.4999 27.4376C22.5308 27.4376 27.4374 22.5311 27.4374 16.5001C27.4374 10.4692 22.5308 5.56265 16.4999 5.56265Z" fill="#17A085"/>
<path d="M24.8627 24.9001C24.8113 24.9001 24.7599 24.8925 24.7085 24.8772C19.3699 23.3087 13.6277 23.3087 8.28913 24.8772C8.00038 24.9614 7.69523 24.7984 7.61101 24.5064C7.5257 24.2166 7.69085 23.9136 7.98179 23.8283C13.5194 22.2008 19.4793 22.2008 25.0159 23.8283C25.3068 23.9136 25.4719 24.2166 25.3866 24.5064C25.3188 24.7459 25.1001 24.9001 24.8627 24.9001Z" fill="#17A085"/>
<path d="M16.4999 10.3992C14.5071 10.3992 12.5088 10.2002 10.5576 9.80859C10.2612 9.74844 10.0698 9.46078 10.1288 9.16437C10.189 8.86797 10.4832 8.67765 10.773 8.73562C15.3701 9.66094 20.1935 9.44875 24.7085 8.12203C24.9962 8.03562 25.3024 8.20078 25.3866 8.49281C25.4719 8.78265 25.3068 9.08562 25.0159 9.17094C22.2487 9.98578 19.383 10.3992 16.4999 10.3992Z" fill="#17A085"/>
<path d="M17.0512 28.5041C16.8772 28.5041 16.7055 28.4209 16.5994 28.2656C16.4299 28.0152 16.4933 27.6761 16.7427 27.5055C20.4112 25.0019 22.6008 20.8883 22.6008 16.5002C22.6008 12.112 20.4112 7.99953 16.7427 5.49484C16.4933 5.32421 16.4299 4.98406 16.5994 4.73468C16.7701 4.48531 17.1102 4.42406 17.3596 4.5914C21.3266 7.29953 23.6946 11.7511 23.6946 16.5002C23.6946 21.2492 21.3266 25.7008 17.3596 28.4089C17.2644 28.4723 17.1583 28.5041 17.0512 28.5041Z" fill="#17A085"/>
<path d="M15.9487 28.504C15.8415 28.504 15.7354 28.4734 15.6402 28.4089C11.6732 25.7008 9.30523 21.2492 9.30523 16.5001C9.30523 13.0734 10.5401 9.7528 12.7812 7.14858C12.9791 6.91889 13.3248 6.89592 13.5523 7.09061C13.7809 7.28749 13.8071 7.63311 13.6102 7.8617C11.5398 10.2669 10.399 13.3348 10.399 16.499C10.399 20.8872 12.5887 24.9997 16.2571 27.5044C16.5065 27.675 16.5699 28.0151 16.4004 28.2645C16.2954 28.4198 16.1226 28.504 15.9487 28.504Z" fill="#17A085"/>
<path d="M16.4999 27.9266C16.198 27.9266 15.953 27.6816 15.953 27.3797V5.62062C15.953 5.31874 16.198 5.07374 16.4999 5.07374C16.8018 5.07374 17.0468 5.31874 17.0468 5.62062V27.3808C17.0468 27.6826 16.8018 27.9266 16.4999 27.9266Z" fill="#17A085"/>
<path d="M27.3794 17.047H7.261C6.95912 17.047 6.71412 16.802 6.71412 16.5001C6.71412 16.1983 6.95912 15.9533 7.261 15.9533H27.3805C27.6824 15.9533 27.9274 16.1983 27.9274 16.5001C27.9274 16.802 27.6824 17.047 27.3794 17.047Z" fill="#17A085"/>
</svg>
