<svg width="32" height="32" viewBox="0 0 32 32" fill="none" xmlns="http://www.w3.org/2000/svg">
<path d="M19.5409 19.464C22.4327 18.2454 24.3069 15.3096 24.2604 12.0714C24.2604 7.62079 20.5547 4 15.9997 4C11.4448 4 7.73906 7.62079 7.73906 12.0714C7.6926 15.3096 9.56674 18.2454 12.4586 19.464L12.5226 19.5L12.96 20.2446C12.1792 20.7135 11.9126 21.7504 12.3645 22.5604C12.4239 22.6669 12.4943 22.7664 12.5745 22.8571C11.9623 23.5536 12.01 24.6331 12.6811 25.2684C12.986 25.557 13.3843 25.7161 13.7969 25.7143H18.2026C19.1111 25.7184 19.8507 24.9576 19.8547 24.0149C19.8565 23.5867 19.7031 23.1734 19.425 22.8571C20.0349 22.1674 19.9903 21.0952 19.3255 20.4625C19.2381 20.3793 19.1422 20.3062 19.0395 20.2446L19.4769 19.5L19.5409 19.464ZM18.2025 24.5714H13.7968C13.4927 24.5714 13.2461 24.3156 13.2461 24C13.2461 23.6844 13.4927 23.4286 13.7968 23.4286H18.2025C18.5067 23.4286 18.7532 23.6844 18.7532 24C18.7532 24.3156 18.5067 24.5714 18.2025 24.5714ZM18.2025 22.2857H13.7968C13.4927 22.2857 13.2461 22.0299 13.2461 21.7143C13.2461 21.3987 13.4927 21.1429 13.7968 21.1429H18.2025C18.5067 21.1429 18.7532 21.3987 18.7532 21.7143C18.7532 22.0299 18.5067 22.2857 18.2025 22.2857ZM19.041 18.4451L18.8208 18.5692C18.7355 18.6174 18.664 18.6881 18.6134 18.774L17.8933 20H17.6518V15.6651L20.244 12.9754L19.4653 12.1674L16.7117 15.0245C16.6085 15.1316 16.5505 15.2769 16.5504 15.4285V19.9999H15.449V15.4285C15.4489 15.2769 15.3909 15.1316 15.2876 15.0245L12.534 12.1674L11.7553 12.9754L14.3475 15.6651V19.9999H14.1061L13.3859 18.7739C13.3353 18.688 13.2638 18.6174 13.1786 18.5691L12.9584 18.445C12.9407 18.4352 12.9226 18.4264 12.9041 18.4185C10.4142 17.3791 8.7987 14.8558 8.84042 12.0714C8.84042 8.25114 12.0519 5.14286 15.9997 5.14286C19.9475 5.14286 23.1589 8.25114 23.1589 12.0714C23.2007 14.8558 21.5851 17.3791 19.0953 18.4185C19.0768 18.4264 19.0586 18.4353 19.041 18.4451Z" fill="#17A085"/>
<path d="M4.68083 4.06056L4.18828 5.08273L7.49235 6.79691L7.98491 5.77474L4.68083 4.06056Z" fill="#17A085"/>
<path d="M27.3875 4.28009L23.8832 5.49289L24.2317 6.57701L27.736 5.3642L27.3875 4.28009Z" fill="#17A085"/>
<path d="M5.53616 11.4286H2.23188V12.5714H5.53616V11.4286Z" fill="#17A085"/>
<path d="M29.7675 11.4286H26.4632V12.5714H29.7675V11.4286Z" fill="#17A085"/>
<path d="M7.4924 18.3454L4.18833 20.0596L4.68089 21.0818L7.98496 19.3676L7.4924 18.3454Z" fill="#17A085"/>
<path d="M24.5063 18.3475L24.0137 19.3697L27.3178 21.0839L27.8103 20.0617L24.5063 18.3475Z" fill="#17A085"/>
<path d="M16.5504 0H15.449V2.85714H16.5504V0Z" fill="#17A085"/>
<path d="M31.9703 26.8571V25.7143C24.7855 25.7143 17.1506 27.5164 17.1014 30.8571H14.898C14.8488 27.5164 7.21383 25.7143 0.0290368 25.7143V26.8571C8.0969 26.8571 13.7305 28.9581 13.7939 30.8571H0.0290368V32H31.9703V30.8571H18.2055C18.2688 28.9581 23.9025 26.8571 31.9703 26.8571Z" fill="#17A085"/>
<path d="M0.0579349 28.5729L0 29.7142L10.4654 30.2862L10.5233 29.1449L0.0579349 28.5729Z" fill="#17A085"/>
<path d="M31.942 28.5719L21.4766 29.145L21.5346 30.2863L32 29.7132L31.942 28.5719Z" fill="#17A085"/>
</svg>
