<svg width="45" height="45" viewBox="0 0 45 45" fill="none" xmlns="http://www.w3.org/2000/svg">
<path d="M32.6612 17.4195C32.6612 7.95779 23.3471 0.47117 22.9509 0.15682C22.6869 -0.0522734 22.3137 -0.0522734 22.0493 0.15682C21.6531 0.47117 12.339 7.95779 12.339 17.4195C12.339 26.1007 20.1778 33.1142 21.7743 34.4553V42.0968C21.7743 42.4976 22.0993 42.8226 22.5001 42.8226C22.9009 42.8226 23.2259 42.4976 23.2259 42.0968V34.4553C24.8228 33.1142 32.6612 26.1007 32.6612 17.4195ZM23.2259 32.5015V24.2876L27.3195 20.8808C27.6278 20.6243 27.6696 20.1664 27.413 19.8581C27.1564 19.5497 26.6986 19.5079 26.3906 19.7645L23.2259 22.3991V19.9314L27.3195 16.5243C27.6278 16.268 27.6696 15.8101 27.413 15.5018C27.1564 15.1935 26.6986 15.1517 26.3906 15.4083L23.2259 18.0443V14.8508L27.3195 11.4436C27.6278 11.1874 27.6696 10.7295 27.413 10.4212C27.1564 10.1129 26.6986 10.0711 26.3906 10.3276L23.2259 12.9636V7.25821C23.2259 6.85739 22.9009 6.53241 22.5001 6.53241C22.0993 6.53241 21.7743 6.85739 21.7743 7.25821V12.9636L18.61 10.3291C18.3016 10.0725 17.8438 10.1143 17.5872 10.4226C17.3306 10.7309 17.3728 11.1888 17.6811 11.4454L21.7743 14.8522V18.0457L18.61 15.4111C18.3016 15.1545 17.8438 15.1963 17.5872 15.5047C17.3306 15.813 17.3728 16.2709 17.6811 16.5274L21.7743 19.9328V22.4005L18.61 19.7659C18.3016 19.5093 17.8438 19.5511 17.5872 19.8595C17.3306 20.1678 17.3728 20.6257 17.6811 20.8823L21.7743 24.2876V32.5015C19.3067 30.1862 13.7906 24.2522 13.7906 17.4195C13.7906 9.80277 20.6559 3.28862 22.5001 1.67683C24.3444 3.28862 31.2096 9.80277 31.2096 17.4195C31.2096 24.2522 25.6935 30.1862 23.2259 32.5015Z" fill="#17A085"/>
<path d="M17.4194 38.4678H16.6937V33.138C16.6961 32.1751 16.3134 31.2512 15.6305 30.5725L9.52079 24.4595C8.67132 23.6136 7.29735 23.6136 6.44788 24.4595L5.80678 25.1028V17.4195C5.80608 16.6129 5.47011 15.8431 4.87935 15.2942C4.28893 14.7448 3.49687 14.4659 2.6924 14.5233C1.14549 14.674 -0.0264787 15.9877 0.000454979 17.5421V27.91C0.000100589 28.813 0.336417 29.6833 0.944196 30.351L7.25837 37.2968V38.4678H6.53258C6.13176 38.4678 5.80678 38.7927 5.80678 39.1936V44.2742C5.80678 44.675 6.13176 45 6.53258 45H17.4194C17.8203 45 18.1452 44.675 18.1452 44.2742V39.1936C18.1452 38.7927 17.8203 38.4678 17.4194 38.4678ZM2.01835 29.374C1.65369 28.9738 1.45168 28.4515 1.45204 27.91V17.5421C1.43255 16.7518 2.01233 16.0738 2.79624 15.9714C3.21726 15.9413 3.63083 16.0954 3.92923 16.3938C4.20281 16.665 4.35627 17.0342 4.3552 17.4195V26.2531C4.35343 26.8312 4.58308 27.3858 4.9931 27.7934L8.92258 31.7229C9.20751 31.9979 9.66007 31.994 9.94004 31.714C10.22 31.4341 10.2239 30.9811 9.9489 30.6966L6.61763 27.3649C6.4819 27.2299 6.4057 27.0463 6.4057 26.8549C6.4057 26.6632 6.4819 26.4796 6.61763 26.3446L7.47419 25.4887C7.75664 25.2095 8.21168 25.2095 8.49448 25.4887L14.6042 31.5992C15.0114 32.0082 15.2407 32.561 15.2421 33.138V38.4678H8.70995V36.7351L2.01835 29.374ZM16.6937 43.5484H7.25837V39.9194H16.6937V43.5484Z" fill="#17A085"/>
<path d="M42.3076 14.5233C41.5035 14.4659 40.7111 14.7448 40.1207 15.2942C39.5302 15.8431 39.1943 16.6129 39.1932 17.4195V25.1028L38.5525 24.4617C37.703 23.6157 36.329 23.6157 35.4796 24.4617L29.3699 30.5725C28.687 31.2512 28.3042 32.1751 28.3063 33.138V38.4678H27.5806C27.1797 38.4678 26.8548 38.7927 26.8548 39.1936V44.2742C26.8548 44.675 27.1797 45 27.5806 45H38.4674C38.8682 45 39.1932 44.675 39.1932 44.2742V39.1936C39.1932 38.7927 38.8682 38.4678 38.4674 38.4678H37.7416V37.2968L44.0562 30.351C44.6639 29.6833 45.0003 28.813 44.9995 27.91V17.5421C45.0265 15.9877 43.8549 14.674 42.3076 14.5233ZM37.7416 43.5484H28.3063V39.9194H37.7416V43.5484ZM43.548 27.91C43.5487 28.4515 43.3467 28.9738 42.982 29.374L36.2901 36.7351V38.4678H29.7579V33.138C29.7593 32.561 29.9886 32.0075 30.3958 31.5985L36.508 25.4887C36.7905 25.2095 37.2455 25.2095 37.5283 25.4887L38.3849 26.3453C38.6645 26.6263 38.6645 27.0803 38.3849 27.3613L35.0518 30.6944C34.8633 30.8766 34.7874 31.1463 34.8541 31.4C34.9203 31.6538 35.1188 31.8523 35.3725 31.9185C35.6263 31.9848 35.896 31.9093 36.0781 31.7204L40.0076 27.7912C40.4166 27.3837 40.6459 26.8301 40.6448 26.2531V17.4195C40.6441 17.0342 40.7975 16.665 41.0708 16.3938C41.3695 16.0954 41.7827 15.9416 42.2038 15.9714C42.9877 16.0738 43.5678 16.7518 43.548 17.5421V27.91Z" fill="#17A085"/>
<path d="M21.9848 43.7588C21.8519 43.8978 21.7768 44.0817 21.7743 44.2741C21.7757 44.3227 21.7803 44.3712 21.7888 44.4191C21.797 44.4648 21.8115 44.5087 21.8324 44.5499C21.8483 44.5959 21.8703 44.6399 21.8976 44.6806C21.9245 44.7185 21.9536 44.7547 21.9848 44.7894C22.2711 45.0701 22.7294 45.0701 23.0154 44.7894L23.1026 44.6806C23.1298 44.6399 23.1518 44.5959 23.1678 44.5499C23.189 44.5087 23.2036 44.4648 23.2106 44.4191C23.2199 44.3712 23.2248 44.3227 23.2259 44.2741C23.2277 43.9793 23.0508 43.7124 22.7786 43.5993C22.5061 43.4863 22.1925 43.5494 21.9848 43.7588Z" fill="#17A085"/>
<path d="M8.71008 42.0967H11.6133C12.0141 42.0967 12.3391 41.7717 12.3391 41.3709C12.3391 40.9701 12.0141 40.6451 11.6133 40.6451H8.71008C8.30926 40.6451 7.98428 40.9701 7.98428 41.3709C7.98428 41.7717 8.30926 42.0967 8.71008 42.0967Z" fill="#17A085"/>
<path d="M13.5148 42.0387C13.602 42.0759 13.6959 42.0954 13.7905 42.0968C14.0854 42.0982 14.3523 41.9214 14.4653 41.6492C14.5784 41.377 14.5153 41.063 14.3058 40.8557C14.0971 40.6494 13.7852 40.5895 13.5148 40.7029C13.4259 40.738 13.3447 40.7898 13.2753 40.8557C13.1424 40.9946 13.0672 41.1785 13.0647 41.371C13.058 41.6662 13.2384 41.9341 13.5148 42.0387Z" fill="#17A085"/>
<path d="M29.7428 18.7257C29.7357 18.6804 29.7212 18.6361 29.6999 18.595C29.6839 18.5489 29.662 18.5049 29.6347 18.4645L29.5475 18.3557C29.2565 18.0871 28.8079 18.0871 28.5169 18.3557C28.4857 18.3901 28.4567 18.4263 28.4297 18.4645C28.4024 18.5049 28.3805 18.5489 28.3645 18.595C28.3436 18.6361 28.3291 18.6804 28.3209 18.7257C28.3128 18.7739 28.3082 18.8221 28.3064 18.871C28.3089 19.0631 28.384 19.2474 28.5169 19.3863C28.6551 19.5203 28.8398 19.5954 29.0322 19.5969C29.2254 19.5986 29.4111 19.5228 29.5479 19.3863C29.6843 19.2499 29.7601 19.0638 29.758 18.871C29.7566 18.8221 29.7516 18.7736 29.7428 18.7257Z" fill="#17A085"/>
</svg>
