<svg width="36" height="36" viewBox="0 0 36 36" fill="none" xmlns="http://www.w3.org/2000/svg">
<path d="M27.7503 0H2.25003C1.00738 0 0 1.00737 0 2.25V20.25C0 21.4926 1.00738 22.5 2.25003 22.5H12.0002V21H2.25003C1.83581 21 1.49999 20.6642 1.49999 20.25V2.25C1.49999 1.83579 1.83581 1.49998 2.25003 1.49998H27.7503C28.1646 1.49998 28.5004 1.83579 28.5004 2.25V15.75H30.0004V2.25C30.0004 1.00737 28.993 0 27.7503 0Z" fill="#17A085"/>
<path d="M10.4998 21.75H8.99984V26.25H10.4998V21.75Z" fill="#17A085"/>
<path d="M5.24982 18C4.8356 18 4.49979 17.6642 4.49979 17.25V15.75H2.99979V17.25C2.99979 18.4926 4.00717 19.5 5.24982 19.5H6.74981V18H5.24982Z" fill="#17A085"/>
<path d="M4.49978 12.75H2.99979V14.2499H4.49978V12.75Z" fill="#17A085"/>
<path d="M27.4103 15.8865C25.882 14.3579 23.8089 13.4991 21.6473 13.4992C17.1469 13.4994 13.4987 17.1479 13.4988 21.6483C13.499 26.1487 17.1475 29.7969 21.648 29.7967C23.8088 29.7967 25.8811 28.9384 27.4092 27.4105C30.5918 24.2285 30.5923 19.0691 27.4103 15.8865ZM21.6435 28.2975C17.9714 28.2962 14.9956 25.3185 14.9969 21.6465C14.9982 17.9745 17.9759 14.9987 21.648 15C23.4129 14.9952 25.1063 15.6975 26.3498 16.9499C27.5956 18.1971 28.2951 19.8881 28.2946 21.651C28.2933 25.323 25.3155 28.2987 21.6435 28.2975Z" fill="#17A085"/>
<path d="M35.7804 32.625L31.0726 27.9188C30.932 27.7782 30.7412 27.6991 30.5423 27.6991C30.3434 27.6991 30.1527 27.7782 30.0121 27.9188L27.9196 30.0113C27.6268 30.3041 27.6268 30.7789 27.9196 31.0718L32.6274 35.7803C32.768 35.921 32.9588 36 33.1577 36C33.3568 35.9994 33.5477 35.9195 33.6879 35.778L35.7804 33.6855C36.0732 33.3926 36.0732 32.9179 35.7804 32.625ZM33.1576 34.1895L29.5103 30.5415L30.5423 29.5095L34.1896 33.1575L33.1576 34.1895Z" fill="#17A085"/>
<path d="M27.4102 26.3491L26.3496 27.4098L28.9651 30.0253L30.0258 28.9647L27.4102 26.3491Z" fill="#17A085"/>
<path d="M21.75 16.5V18C23.8201 18.0025 25.4975 19.68 25.5 21.75H27C26.9967 18.8519 24.6481 16.5033 21.75 16.5Z" fill="#17A085"/>
<path d="M13.4999 25.5H7.49984V27H13.4999V25.5Z" fill="#17A085"/>
<path d="M11.2499 3.00002C10.0072 3.00002 8.99984 4.00739 8.99984 5.25002C8.99984 6.49265 10.0072 7.50002 11.2499 7.50002C12.4925 7.50002 13.4999 6.49265 13.4999 5.25002C13.4999 4.00739 12.4925 3.00002 11.2499 3.00002ZM11.2499 5.99997C10.8356 5.99997 10.4998 5.66416 10.4998 5.24995C10.4998 4.83574 10.8356 4.49993 11.2499 4.49993C11.6641 4.49993 11.9999 4.83574 11.9999 5.24995C11.9999 5.66423 11.6641 5.99997 11.2499 5.99997Z" fill="#17A085"/>
<path d="M16.5 8.24997C15.2573 8.24997 14.2499 9.25733 14.2499 10.5C14.2499 11.7426 15.2573 12.75 16.5 12.75C17.7426 12.75 18.75 11.7426 18.75 10.5C18.75 9.25733 17.7426 8.24997 16.5 8.24997ZM16.5 11.25C16.0857 11.25 15.7499 10.9142 15.7499 10.5C15.7499 10.0858 16.0857 9.74994 16.5 9.74994C16.9142 9.74994 17.25 10.0858 17.25 10.5C17.2499 10.9142 16.9142 11.25 16.5 11.25Z" fill="#17A085"/>
<path d="M9.96943 5.46995L6.21945 9.21987L7.2801 10.2805L11.0301 6.53058L9.96943 5.46995Z" fill="#17A085"/>
<path d="M12.5269 5.47183L11.4662 6.53246L15.2162 10.2824L16.2769 9.22175L12.5269 5.47183Z" fill="#17A085"/>
<path d="M21.75 3.00002C20.5073 3.00002 19.4999 4.00739 19.4999 5.25002C19.4999 6.49265 20.5073 7.50002 21.75 7.50002C22.9926 7.50002 24 6.49265 24 5.25002C24.0001 4.00739 22.9927 3.00002 21.75 3.00002ZM21.75 5.99997C21.3358 5.99997 20.9999 5.66416 20.9999 5.24995C20.9999 4.83574 21.3358 4.49993 21.75 4.49993C22.1642 4.49993 22.5 4.83574 22.5 5.24995C22.5 5.66423 22.1642 5.99997 21.75 5.99997Z" fill="#17A085"/>
<path d="M20.4691 5.47253L16.7192 9.22246L17.7798 10.2831L21.5298 6.53316L20.4691 5.47253Z" fill="#17A085"/>
</svg>
