<svg width="39" height="51" viewBox="0 0 39 51" fill="none" xmlns="http://www.w3.org/2000/svg">
<path d="M27.8775 6.3525L27.4458 5.92667C27.0016 5.4742 26.5811 4.99913 26.1858 4.50333C25.34 3.40083 25.1883 1.295 25.1767 1.05583L25.1067 0L26.1567 0.285833C27.3587 0.69788 28.3743 1.52525 29.0208 2.61917C29.2395 2.91428 29.3918 3.25315 29.4673 3.61258C29.5428 3.97202 29.5397 4.34352 29.4583 4.70167C29.2921 5.28215 28.9074 5.7756 28.385 6.07833L27.8775 6.3525ZM26.4133 1.68583C26.4975 2.43053 26.7402 3.14856 27.125 3.79167C27.4458 4.21167 27.8367 4.63167 28.07 4.8825C28.2103 4.74901 28.3112 4.57949 28.3617 4.3925C28.392 4.18723 28.3803 3.97793 28.3271 3.77736C28.274 3.57678 28.1805 3.38913 28.0525 3.22583C27.64 2.58027 27.0777 2.04393 26.4133 1.6625V1.68583Z" fill="#17A085"/>
<path d="M29.5225 7.19253L29.1842 6.74336C28.9816 6.46654 28.8449 6.1472 28.7842 5.80961C28.7236 5.47201 28.7407 5.12504 28.8342 4.79503C29.1025 3.94336 29.9367 3.3017 31.3017 2.8817C33.182 2.25833 35.192 2.13371 37.135 2.52003L38.5992 2.88753L37.625 3.8792C37.5317 3.9667 35.3267 6.07253 33.215 6.5742C31.8092 6.91253 30.1875 7.15753 30.17 7.15753L29.5225 7.19253ZM35.0642 3.4767C33.9034 3.48016 32.7496 3.6551 31.64 3.99586C30.6833 4.29336 30.1 4.6842 29.9483 5.16253C29.9101 5.29625 29.8987 5.43619 29.9147 5.57434C29.9307 5.71249 29.9738 5.84611 30.0417 5.96753C30.3508 5.92086 31.7333 5.72253 32.9117 5.44253C34.119 5.04575 35.2326 4.40658 36.1842 3.5642C35.8124 3.52097 35.4384 3.49955 35.0642 3.50003V3.4767Z" fill="#17A085"/>
<path d="M20.1542 28.525L18.4858 25.6492L16.8233 28.525L12.5417 26.0575L15.3125 21.2684C15.5114 20.9263 15.7965 20.6423 16.1394 20.4447C16.4823 20.2472 16.8709 20.143 17.2667 20.1425H19.6817C20.0774 20.143 20.4661 20.2472 20.809 20.4447C21.1518 20.6423 21.437 20.9263 21.6358 21.2684L24.4067 26.0575L20.1542 28.525ZM14.1458 25.6084L16.3975 26.9092L18.4858 23.2925L20.58 26.9092L22.8258 25.6084L20.6383 21.8284C20.5427 21.6626 20.4048 21.5252 20.2389 21.4299C20.0729 21.3346 19.8847 21.2849 19.6933 21.2859H17.2783C17.087 21.2849 16.8988 21.3346 16.7328 21.4299C16.5668 21.5252 16.429 21.6626 16.3333 21.8284L14.1458 25.6084Z" fill="#17A085"/>
<path d="M18.4859 25.0658H18.4275C18.2747 25.0496 18.1344 24.9738 18.0372 24.8547C17.94 24.7356 17.8937 24.583 17.9084 24.43C18.0415 23.63 18.3989 22.8842 18.9389 22.2791C19.4789 21.6741 20.1794 21.2346 20.9592 21.0117C21.1062 20.9622 21.2668 20.9731 21.4057 21.042C21.5447 21.1109 21.6505 21.2322 21.7 21.3792C21.7496 21.5261 21.7386 21.6868 21.6697 21.8257C21.6008 21.9646 21.4795 22.0705 21.3325 22.12C20.7665 22.2732 20.2546 22.5816 19.8547 23.0104C19.4547 23.4393 19.1827 23.9714 19.0692 24.5467C19.0533 24.69 18.985 24.8224 18.8772 24.9183C18.7695 25.0141 18.6301 25.0667 18.4859 25.0658Z" fill="#17A085"/>
<path d="M23.625 29.2134L18.0309 28.1925L20.125 27.2009L23.3334 25.3517L25.3284 24.0159L23.625 29.2134ZM21.63 27.6675L22.8434 27.8834L23.205 26.7634L21.63 27.6675Z" fill="#17A085"/>
<path d="M25.375 38.6283H19.8333V33.705H23.1583L21.5017 30.8233L25.7833 28.3733L28.5367 33.1742C28.736 33.517 28.8409 33.9064 28.8409 34.3029C28.8409 34.6994 28.736 35.0889 28.5367 35.4317L27.3117 37.5258C27.1114 37.8611 26.8278 38.1388 26.4884 38.332C26.1491 38.5251 25.7655 38.6272 25.375 38.6283ZM20.9942 37.4617H25.3692C25.5562 37.4624 25.7403 37.415 25.9037 37.3241C26.0672 37.2332 26.2045 37.1018 26.3025 36.9425L27.5217 34.8542C27.6163 34.688 27.666 34.5 27.666 34.3087C27.666 34.1175 27.6163 33.9295 27.5217 33.7633L25.375 29.9425L23.1175 31.2317L25.2 34.8542H21.0175L20.9942 37.4617Z" fill="#17A085"/>
<path d="M25.375 38.6283L25.2583 38.6284C25.181 38.6145 25.1072 38.5851 25.0415 38.5421C24.9758 38.499 24.9194 38.4431 24.8759 38.3778C24.8323 38.3124 24.8024 38.2389 24.7879 38.1617C24.7734 38.0844 24.7747 38.0051 24.7916 37.9284C24.9405 37.3608 24.9289 36.7629 24.7579 36.2016C24.5869 35.6402 24.2633 35.1374 23.8233 34.7492C23.7562 34.7062 23.6987 34.6499 23.6542 34.5838C23.6097 34.5177 23.5793 34.4432 23.5647 34.3649C23.5501 34.2866 23.5517 34.2061 23.5694 34.1284C23.5872 34.0508 23.6206 33.9776 23.6677 33.9133C23.7148 33.8491 23.7745 33.7951 23.8433 33.7549C23.912 33.7146 23.9882 33.6888 24.0673 33.6791C24.1464 33.6694 24.2266 33.6761 24.303 33.6986C24.3794 33.7211 24.4504 33.759 24.5116 33.81C25.1378 34.3244 25.6059 35.0053 25.8619 35.7742C26.1178 36.5432 26.1513 37.3688 25.9583 38.1559C25.9322 38.2907 25.8594 38.412 25.7527 38.4984C25.646 38.5848 25.5123 38.6308 25.375 38.6283Z" fill="#17A085"/>
<path d="M21.1342 40.4075L17.4767 36.3242L21.1575 31.9784L20.9884 34.3117V38.01L21.1342 40.4075ZM19.0283 36.3242L19.8159 37.1992V35.3909L19.0283 36.3242Z" fill="#17A085"/>
<path d="M16.9225 38.6925H11.3808C10.982 38.6875 10.5915 38.577 10.2493 38.372C9.90707 38.1671 9.62524 37.8751 9.43252 37.5259L8.23085 35.4259C8.03328 35.0825 7.9293 34.6933 7.9293 34.2971C7.9293 33.901 8.03328 33.5117 8.23085 33.1684L11.0192 28.3909L15.2834 30.87L13.6092 33.74H16.9342L16.9225 38.6925ZM11.4509 29.9834L9.24585 33.7575C9.15124 33.9237 9.10149 34.1117 9.10149 34.303C9.10149 34.4942 9.15124 34.6822 9.24585 34.8484L10.4125 36.9425C10.5097 37.1074 10.6477 37.2444 10.8132 37.3405C10.9787 37.4365 11.1662 37.4883 11.3575 37.4909H15.7325V34.895H11.55L13.7084 31.29L11.4509 29.9834Z" fill="#17A085"/>
<path d="M11.375 35.1167C10.2465 35.1031 9.16333 34.6707 8.3358 33.9033C8.2199 33.8011 8.14927 33.6572 8.13943 33.5029C8.12959 33.3487 8.18133 33.1969 8.2833 33.0808C8.38549 32.9649 8.52949 32.8943 8.68369 32.8845C8.83789 32.8746 8.9897 32.9264 9.1058 33.0283C9.52323 33.4407 10.0464 33.7297 10.6177 33.8635C11.189 33.9973 11.7862 33.9707 12.3433 33.7867C12.4141 33.7473 12.4922 33.7231 12.5729 33.7156C12.6535 33.7081 12.7348 33.7175 12.8116 33.7431C12.8884 33.7688 12.959 33.8101 13.0189 33.8646C13.0789 33.919 13.1269 33.9853 13.1598 34.0593C13.1927 34.1332 13.2099 34.2133 13.2102 34.2942C13.2105 34.3752 13.1939 34.4553 13.1616 34.5296C13.1292 34.6038 13.0818 34.6705 13.0222 34.7253C12.9627 34.7802 12.8924 34.8221 12.8158 34.8483C12.3583 35.0332 11.8683 35.1244 11.375 35.1167Z" fill="#17A085"/>
<path d="M16.0766 32.8592L14.1691 31.5584L10.9666 29.7034L8.81412 28.63L14.1575 27.5042L16.0766 32.8592ZM12.25 29.0967L13.8191 30.0125L13.405 28.8459L12.25 29.0967Z" fill="#17A085"/>
<path d="M34.8891 15.6859H1.76164C1.42021 15.6843 1.09319 15.548 0.851759 15.3066C0.610326 15.0651 0.47401 14.7381 0.472475 14.3967V12.7692C0.47401 12.4278 0.610326 12.1007 0.851759 11.8593C1.09319 11.6179 1.42021 11.4816 1.76164 11.48H34.8891C35.2296 11.4831 35.5551 11.6201 35.7953 11.8614C36.0354 12.1026 36.171 12.4288 36.1725 12.7692V14.3967C36.1725 14.7376 36.0375 15.0646 35.797 15.3062C35.5565 15.5478 35.23 15.6843 34.8891 15.6859ZM1.76164 12.6467C1.72961 12.6481 1.69927 12.6615 1.6766 12.6842C1.65393 12.7068 1.64057 12.7372 1.63914 12.7692V14.3967C1.63914 14.4292 1.65205 14.4603 1.67502 14.4833C1.69799 14.5063 1.72915 14.5192 1.76164 14.5192H34.8891C34.905 14.5192 34.9206 14.516 34.9352 14.5098C34.9497 14.5036 34.9629 14.4944 34.9738 14.483C34.9847 14.4715 34.9932 14.458 34.9987 14.4431C35.0042 14.4283 35.0066 14.4125 35.0058 14.3967V12.7692C35.0058 12.7377 34.9937 12.7074 34.972 12.6846C34.9503 12.6618 34.9206 12.6482 34.8891 12.6467H1.76164Z" fill="#17A085"/>
<path d="M32.9175 12.6467H3.84996V10.4883C3.84996 9.94686 4.06506 9.42755 4.44795 9.04467C4.83084 8.66178 5.35014 8.44667 5.89163 8.44667H30.8758C31.4173 8.44667 31.9366 8.66178 32.3195 9.04467C32.7024 9.42755 32.9175 9.94686 32.9175 10.4883V12.6467ZM5.01663 11.48H31.7508V10.4883C31.7508 10.2563 31.6586 10.0337 31.4945 9.86962C31.3304 9.70553 31.1079 9.61334 30.8758 9.61334H5.89163C5.65956 9.61334 5.437 9.70553 5.27291 9.86962C5.10881 10.0337 5.01663 10.2563 5.01663 10.4883V11.48Z" fill="#17A085"/>
<path d="M30.0708 9.61335H6.70833V7.89252C6.71598 7.24209 6.97895 6.62071 7.44054 6.16239C7.90213 5.70408 8.52536 5.44553 9.17583 5.44252H27.5917C28.2492 5.44252 28.8798 5.70371 29.3447 6.16865C29.8096 6.63358 30.0708 7.26417 30.0708 7.92168V9.61335ZM7.875 8.44668H28.9042V7.89252C28.8965 7.5495 28.7549 7.22311 28.5096 6.98324C28.2643 6.74337 27.9348 6.6091 27.5917 6.60918H9.17583C8.83475 6.61213 8.50822 6.74775 8.2654 6.98729C8.02259 7.22684 7.88257 7.55151 7.875 7.89252V8.44668Z" fill="#17A085"/>
<path d="M31.2667 48.0258H31.115C30.5977 48.0258 30.1016 47.8208 29.7353 47.4555C29.3689 47.0903 29.1624 46.5948 29.1608 46.0775V42.1167C29.1624 41.5994 29.3689 41.1039 29.7353 40.7386C30.1016 40.3734 30.5977 40.1683 31.115 40.1683H31.2667C31.7839 40.1683 32.2801 40.3734 32.6464 40.7386C33.0127 41.1039 33.2193 41.5994 33.2208 42.1167V46.0658C33.2216 46.323 33.1716 46.5777 33.0738 46.8155C32.9759 47.0532 32.8321 47.2693 32.6505 47.4514C32.469 47.6335 32.2533 47.778 32.0158 47.8765C31.7784 47.9751 31.5238 48.0258 31.2667 48.0258ZM31.115 41.3467C30.9072 41.3467 30.7077 41.4288 30.5602 41.5753C30.4127 41.7217 30.329 41.9205 30.3275 42.1283V46.0775C30.329 46.2854 30.4127 46.4842 30.5602 46.6306C30.7077 46.777 30.9072 46.8592 31.115 46.8592H31.2667C31.3698 46.8599 31.4721 46.8403 31.5676 46.8014C31.6631 46.7624 31.75 46.705 31.8232 46.6323C31.8964 46.5596 31.9545 46.4732 31.9941 46.378C32.0338 46.2828 32.0542 46.1806 32.0542 46.0775V42.1167C32.0542 42.0135 32.0338 41.9114 31.9941 41.8162C31.9545 41.721 31.8964 41.6345 31.8232 41.5619C31.75 41.4892 31.6631 41.4318 31.5676 41.3928C31.4721 41.3539 31.3698 41.3342 31.2667 41.335L31.115 41.3467Z" fill="#17A085"/>
<path d="M5.43087 48.0258H5.27337C5.01472 48.0266 4.75847 47.9763 4.51929 47.8779C4.28011 47.7794 4.06271 47.6347 3.87954 47.4521C3.69638 47.2695 3.55106 47.0525 3.4519 46.8136C3.35274 46.5748 3.3017 46.3186 3.3017 46.06V42.1342C3.3017 41.8755 3.35274 41.6194 3.4519 41.3805C3.55106 41.1416 3.69638 40.9247 3.87954 40.742C4.06271 40.5594 4.28011 40.4147 4.51929 40.3163C4.75847 40.2178 5.01472 40.1676 5.27337 40.1683H5.43087C5.95224 40.1683 6.45226 40.3755 6.82093 40.7441C7.18959 41.1128 7.39671 41.6128 7.39671 42.1342V46.0483C7.39824 46.3075 7.34853 46.5644 7.25043 46.8042C7.15232 47.0441 7.00776 47.2622 6.82507 47.4459C6.64237 47.6297 6.42514 47.7756 6.18587 47.8751C5.9466 47.9746 5.69001 48.0258 5.43087 48.0258ZM5.27337 41.3467C5.06088 41.3467 4.857 41.4307 4.7062 41.5804C4.5554 41.7301 4.46991 41.9333 4.46837 42.1458V46.06C4.46837 46.1654 4.48923 46.2698 4.52976 46.3672C4.57028 46.4645 4.62967 46.5529 4.7045 46.6272C4.77933 46.7015 4.86812 46.7602 4.96575 46.8C5.06338 46.8398 5.16793 46.8599 5.27337 46.8592H5.43087C5.64282 46.8592 5.84609 46.775 5.99597 46.6251C6.14584 46.4752 6.23004 46.2719 6.23004 46.06V42.1342C6.22851 41.9227 6.14382 41.7203 5.99428 41.5708C5.84474 41.4212 5.64235 41.3365 5.43087 41.335L5.27337 41.3467Z" fill="#17A085"/>
<path d="M26.8333 50.9425H9.70079C8.99067 50.9856 8.29006 50.7618 7.73643 50.3151C7.18279 49.8683 6.8161 49.2307 6.70829 48.5275L3.55829 14.5192H32.9583L29.8025 48.5275C29.695 49.2265 29.3317 49.8606 28.783 50.3069C28.2344 50.7531 27.5395 50.9796 26.8333 50.9425ZM4.83579 15.6858L7.87496 48.4225C7.9684 48.8285 8.20361 49.1878 8.53829 49.4359C8.87298 49.684 9.28518 49.8045 9.70079 49.7758H26.8333C27.2489 49.8045 27.6611 49.684 27.9958 49.4359C28.3305 49.1878 28.5657 48.8285 28.6591 48.4225L31.6983 15.6858H4.83579Z" fill="#17A085"/>
<path d="M34.2008 50.9425H7.62997C7.47526 50.9425 7.32688 50.8811 7.21749 50.7717C7.10809 50.6623 7.04663 50.5139 7.04663 50.3592C7.04663 50.2045 7.10809 50.0561 7.21749 49.9467C7.32688 49.8373 7.47526 49.7759 7.62997 49.7759H34.2008C34.3555 49.7759 34.5039 49.8373 34.6133 49.9467C34.7227 50.0561 34.7841 50.2045 34.7841 50.3592C34.7841 50.5139 34.7227 50.6623 34.6133 50.7717C34.5039 50.8811 34.3555 50.9425 34.2008 50.9425Z" fill="#17A085"/>
<path d="M6.12502 50.9425H3.33085C3.17614 50.9425 3.02777 50.8811 2.91837 50.7717C2.80897 50.6623 2.74751 50.5139 2.74751 50.3592C2.74751 50.2045 2.80897 50.0561 2.91837 49.9467C3.02777 49.8373 3.17614 49.7759 3.33085 49.7759H6.12502C6.27973 49.7759 6.4281 49.8373 6.5375 49.9467C6.64689 50.0561 6.70835 50.2045 6.70835 50.3592C6.70835 50.5139 6.64689 50.6623 6.5375 50.7717C6.4281 50.8811 6.27973 50.9425 6.12502 50.9425Z" fill="#17A085"/>
<path d="M1.35917 50.9425H0.583333C0.428624 50.9425 0.28025 50.8811 0.170854 50.7717C0.0614577 50.6623 0 50.5139 0 50.3592C0 50.2045 0.0614577 50.0561 0.170854 49.9467C0.28025 49.8373 0.428624 49.7759 0.583333 49.7759H1.35917C1.51388 49.7759 1.66225 49.8373 1.77165 49.9467C1.88104 50.0561 1.9425 50.2045 1.9425 50.3592C1.9425 50.5139 1.88104 50.6623 1.77165 50.7717C1.66225 50.8811 1.51388 50.9425 1.35917 50.9425Z" fill="#17A085"/>
</svg>
