<svg width="44" height="49" viewBox="0 0 44 49" fill="none" xmlns="http://www.w3.org/2000/svg">
<path d="M12.5033 34.2962C20.5661 34.2962 25.0066 29.6546 25.0066 21.2261C25.0066 13.3349 13.6087 0.788561 13.1236 0.259264C12.9612 0.0937339 12.7373 0 12.5033 0C12.2693 0 12.045 0.0937339 11.883 0.259264C11.3979 0.788561 0 13.3349 0 21.2261C0 29.6546 4.44046 34.2962 12.5033 34.2962ZM12.5033 2.05058C14.8896 4.79519 23.3395 14.9531 23.3395 21.2261C23.3395 26.4433 21.4591 32.6625 12.5033 32.6625C3.54748 32.6625 1.6671 26.4433 1.6671 21.2261C1.6671 14.9531 10.1166 4.79519 12.5033 2.05058Z" fill="#17A085"/>
<path d="M35.8427 35.93C40.6104 35.93 43.3447 32.8121 43.3447 27.3739C43.3447 22.2676 36.7337 15.2483 36.4528 14.9516C36.2916 14.792 36.0719 14.7023 35.8427 14.7023C35.6136 14.7023 35.3938 14.792 35.2326 14.9516C34.9518 15.2483 28.3407 22.2676 28.3407 27.3739C28.3407 32.8121 31.0746 35.93 35.8427 35.93ZM35.8427 16.7413C37.4504 18.5745 41.6776 23.7406 41.6776 27.3739C41.6776 31.9673 39.7146 34.2962 35.8427 34.2962C31.9708 34.2962 30.0078 31.9673 30.0078 27.3739C30.0078 23.7406 34.2346 18.5745 35.8427 16.7413Z" fill="#17A085"/>
<path d="M23.5478 32.9385C23.3354 33.1746 18.3381 38.7679 18.3381 42.465C18.3381 46.618 20.4652 49.0001 24.173 49.0001C27.8804 49.0001 30.0078 46.618 30.0078 42.465C30.0078 38.7679 25.0106 33.1746 24.7982 32.9385C24.6353 32.7702 24.4095 32.6748 24.173 32.6748C23.9365 32.6748 23.7102 32.7702 23.5478 32.9385ZM24.173 47.3663C21.4082 47.3663 20.0052 45.717 20.0052 42.465C20.0052 40.2445 22.6133 36.63 24.173 34.7469C25.7335 36.626 28.3407 40.2413 28.3407 42.465C28.3407 45.717 26.9378 47.3663 24.173 47.3663Z" fill="#17A085"/>
<path d="M10.7527 31.0247C10.7804 31.0275 10.8081 31.0287 10.8361 31.0287C11.2802 31.0287 11.6465 30.6872 11.6689 30.2525C11.6909 29.8177 11.3616 29.4424 10.9196 29.3989C9.17841 29.3131 7.5577 28.5022 6.4657 27.1704C4.24873 24.3377 4.98297 19.771 4.98948 19.7256C5.05013 19.288 4.74487 18.8824 4.30042 18.8098C3.85597 18.7376 3.43309 19.0244 3.34599 19.4575C3.30895 19.6733 2.48232 24.7557 5.13723 28.1572C6.50315 29.8576 8.54795 30.9018 10.7527 31.0247Z" fill="#17A085"/>
<path d="M35.0092 32.6625C36.5473 32.6409 38.0137 32.0219 39.0862 30.9413C40.0146 29.7711 40.3504 28.251 39.9987 26.8095C39.9132 26.3739 39.4891 26.0847 39.0427 26.1577C38.5962 26.2311 38.2909 26.6399 38.3552 27.0791C38.6104 28.0436 38.4142 29.0699 37.82 29.8784C37.0658 30.5971 36.0609 31.0084 35.0092 31.0287C34.5489 31.0287 34.1757 31.3945 34.1757 31.8456C34.1757 32.2967 34.5489 32.6625 35.0092 32.6625Z" fill="#17A085"/>
<path d="M23.7118 44.1846C23.4517 44.0817 23.2511 43.8723 23.1624 43.6114C23.074 43.3509 23.1066 43.065 23.2519 42.83C23.4574 42.4264 23.2906 41.9354 22.8783 41.7339C22.4664 41.5321 21.9658 41.696 21.7598 42.0997C21.4171 42.7235 21.3524 43.4586 21.5807 44.1307C21.8095 44.8028 22.3109 45.3529 22.9666 45.6508C23.3789 45.8526 23.8795 45.6887 24.0854 45.2847C24.291 44.881 24.1241 44.3904 23.7118 44.1886V44.1846Z" fill="#17A085"/>
</svg>
